<svg version="1.1" id="Layer_1" xmlns="http://www.w3.org/2000/svg" xmlns:xlink="http://www.w3.org/1999/xlink" x="0px" y="0px"
	 width="100%" viewBox="0 0 736 608" enable-background="new 0 0 736 608" xml:space="preserve">
<path fill="#000000" opacity="1.000000" stroke="none" 
	d="
M218.271393,233.220123 
	C257.469452,215.910370 296.352570,198.826080 335.151733,181.553299 
	C339.341919,179.687897 343.389374,180.517670 347.403687,180.903015 
	C376.043427,183.652145 404.655304,186.690231 433.285034,189.546265 
	C453.475494,191.560425 473.680328,193.430573 493.878204,195.370758 
	C497.913330,195.758362 501.275757,193.590515 504.792053,192.267685 
	C507.619965,191.203842 510.114532,191.026901 512.986572,191.843781 
	C558.608276,204.819977 604.262512,217.681839 649.864563,230.726273 
	C654.257874,231.982971 657.445618,231.871979 660.081604,227.627319 
	C661.910828,224.681625 664.947144,222.444687 666.575195,219.422867 
	C670.632996,211.890976 676.794067,210.288742 684.837219,210.662933 
	C697.474304,211.250839 710.158875,210.801636 722.823181,210.836975 
	C724.743347,210.842331 726.801514,210.410919 729.084534,212.211761 
	C720.651794,222.665253 710.019714,230.803391 701.515930,241.518661 
	C709.343933,250.100403 716.737610,258.881500 724.887451,266.893555 
	C729.984009,271.903961 731.880432,276.359528 729.057556,283.472382 
	C725.820312,291.629242 724.285034,300.445557 721.587097,308.839355 
	C720.287415,312.883026 721.312683,315.395203 724.572449,317.738251 
	C726.805481,319.343323 729.437378,320.694061 730.808167,324.053314 
	C726.405823,328.351776 721.926758,332.780243 717.387390,337.145996 
	C707.424316,346.728027 697.424377,356.271790 687.453125,365.845276 
	C683.635254,369.510834 675.769592,370.389801 669.842285,367.436035 
	C682.840454,350.910156 687.189331,332.368286 681.406860,312.099457 
	C678.041443,300.302887 671.269897,290.446259 661.500793,282.807709 
	C640.092285,266.068146 609.946899,265.494690 589.553650,281.490448 
	C576.229919,291.941162 567.920898,305.353851 566.149231,322.368256 
	C564.400452,339.163147 569.099243,354.240326 580.192810,368.442444 
	C461.293945,368.442444 343.587677,368.442444 224.422028,368.442444 
	C239.032715,349.396545 242.995346,329.468719 235.171341,307.883423 
	C230.842010,295.939392 223.077545,286.411591 212.391922,279.549652 
	C188.443024,264.170532 161.135406,267.582764 141.836594,283.897919 
	C129.450623,294.368896 122.228218,307.824219 121.208824,324.122833 
	C120.232025,339.740692 121.688408,343.782593 134.686722,368.317627 
	C94.168488,368.317627 54.046814,368.317627 12.305976,368.317627 
	C17.078423,363.967865 20.668930,360.618103 24.346636,357.367004 
	C27.466017,354.609406 30.596590,351.849915 33.887989,349.305756 
	C36.883995,346.989899 36.982162,344.873077 34.809898,341.758789 
	C25.852922,328.917603 17.143801,315.903748 8.299769,302.983368 
	C4.962908,298.108490 4.987924,297.894623 10.212132,295.521576 
	C55.704216,274.857056 101.196510,254.192978 146.672058,233.492142 
	C149.310516,232.291107 151.919739,231.587891 154.863464,231.848480 
	C172.754028,233.432114 190.650742,234.946808 208.548126,236.452240 
	C212.077652,236.749130 214.797989,234.397278 218.271393,233.220123 
M373.308990,316.002075 
	C340.175446,325.985992 307.041870,335.969910 273.908325,345.953827 
	C278.502441,346.088562 282.963989,345.785065 287.413300,345.354584 
	C306.603577,343.497772 325.784424,341.541321 344.979919,339.740784 
	C364.340118,337.924835 383.718048,336.298798 403.079926,334.500366 
	C423.429382,332.610168 443.762878,330.546539 464.118103,328.723358 
	C468.063110,328.370026 470.973145,326.955109 473.396942,323.780579 
	C483.907379,310.014709 494.461853,296.279449 505.229462,282.714996 
	C508.265991,278.889801 510.565094,274.234863 515.665161,272.301086 
	C527.339905,267.874512 538.952942,263.285400 550.587585,258.753510 
	C552.564880,257.983307 554.525024,257.169342 556.493103,256.375580 
	C525.748901,259.161346 495.371063,262.817444 465.002716,266.550812 
	C462.189667,266.896637 459.677490,267.911316 457.686005,270.331512 
	C444.674561,286.143890 431.544525,301.858704 418.440308,317.594666 
	C417.765533,318.404938 417.394287,319.811432 415.037811,318.934784 
	C424.565125,302.486664 435.709351,287.148529 445.198761,269.574646 
	C432.964478,270.011749 422.320251,272.213348 411.553345,274.098419 
	C417.198059,274.792603 422.850159,275.152649 428.112671,276.303558 
	C428.721710,277.928955 427.994385,278.697632 427.381165,279.461548 
	C420.710907,287.771210 414.010468,296.056671 407.358673,304.381012 
	C406.026703,306.047943 404.261627,306.772278 402.303497,307.346039 
	C392.880524,310.106964 383.474487,312.925903 373.308990,316.002075 
M46.384033,302.940857 
	C43.513779,304.504211 40.643520,306.067566 37.714973,307.662659 
	C39.057358,310.051331 41.131718,310.400391 42.897251,311.182220 
	C48.530392,313.676788 54.217110,316.051666 59.830742,318.588715 
	C67.690849,322.140991 71.463959,334.161621 67.179359,341.553345 
	C64.516678,346.146942 61.975651,350.811005 59.380020,355.443451 
	C59.746086,355.723877 60.112148,356.004303 60.478214,356.284729 
	C68.126938,351.931152 75.693726,347.423584 83.459839,343.290588 
	C87.194252,341.303192 89.643280,338.631653 91.402130,334.795227 
	C98.581619,319.135071 107.357689,304.398499 118.526833,291.243286 
	C136.278214,270.335388 156.410919,255.830856 186.490967,259.306305 
	C221.421539,263.342133 244.962540,285.907104 247.483047,321.208466 
	C247.652344,323.579620 247.273941,326.646484 251.077499,326.563965 
	C254.787048,326.483490 253.972061,323.504272 253.979477,321.363586 
	C254.044174,302.703491 253.943604,284.042511 254.083847,265.383240 
	C254.113983,261.373901 252.511688,259.856232 248.657562,259.293732 
	C220.015427,255.113464 191.371979,250.926010 162.794540,246.332733 
	C157.269302,245.444656 152.895370,246.584885 148.160355,249.108521 
	C114.509727,267.043488 80.754929,284.783020 46.384033,302.940857 
M346.750397,255.931686 
	C371.515411,253.925522 396.280426,251.919342 421.840881,249.848740 
	C418.692047,239.238861 415.874542,229.710068 413.030884,220.189087 
	C412.333740,217.854950 410.428070,217.426147 408.315399,217.281494 
	C384.246735,215.633606 360.178833,213.974808 336.112488,212.293503 
	C334.042755,212.148911 332.154358,212.789062 330.273956,213.426178 
	C307.587311,221.112732 284.864136,228.696381 262.266907,236.638168 
	C257.082153,238.460327 251.496719,239.431961 245.863510,242.863037 
	C261.068115,246.659805 275.362854,250.339508 289.717590,253.767792 
	C296.974609,255.500977 304.064972,258.770721 311.542206,258.589569 
	C322.985657,258.312317 334.403046,256.957886 346.750397,255.931686 
M340.896912,352.376984 
	C339.317413,352.604797 337.580078,352.017212 335.680084,353.655823 
	C341.775909,353.655823 347.355621,353.655914 352.935303,353.655792 
	C400.881683,353.654968 448.828186,353.618774 496.774323,353.723419 
	C500.428741,353.731415 502.442993,352.652954 503.999023,349.218262 
	C511.963959,331.636566 520.201233,314.178284 528.302673,296.658112 
	C528.976807,295.200256 530.023560,293.790863 529.614807,291.702484 
	C527.587097,292.356018 526.264893,293.809509 524.805969,295.079041 
	C509.743652,308.186401 494.645905,321.253204 479.627716,334.410889 
	C477.623413,336.166870 475.439606,336.942810 472.884644,337.219513 
	C464.133636,338.167206 455.389252,339.176971 446.645386,340.189209 
	C411.672089,344.238037 376.699982,348.296661 340.896912,352.376984 
M577.275940,236.015717 
	C584.983948,238.705872 589.336182,232.444748 595.383362,229.959229 
	C593.744324,227.683823 591.802795,227.669403 590.080444,227.262711 
	C567.721069,221.983276 545.295410,216.969604 523.013611,211.382263 
	C510.450195,208.231903 497.918304,206.683411 485.031982,208.297729 
	C482.910309,208.563522 480.721527,208.503784 478.579285,208.361252 
	C462.807861,207.311935 447.040405,206.203354 430.528900,205.062088 
	C432.778961,206.385513 434.544769,206.442169 436.284088,206.738251 
	C450.216797,209.109985 464.230408,211.117477 478.042694,214.064056 
	C510.901611,221.073868 543.663574,228.538437 577.275940,236.015717 
M430.365631,245.148666 
	C431.151428,248.977570 433.653107,249.130676 436.792847,248.287231 
	C445.119232,246.050446 453.479736,243.940323 461.802185,241.689270 
	C463.745728,241.163589 465.973846,241.164383 468.236481,238.890854 
	C453.314423,231.851288 438.685486,225.697250 422.781342,219.178421 
	C425.540619,228.548691 427.870667,236.461365 430.365631,245.148666 
z"/>
<path fill="#000000" opacity="1.000000" stroke="none" 
	d="
M499.221313,76.683929 
	C530.046021,83.019112 559.761108,91.564713 588.358826,103.765266 
	C610.837341,113.355202 631.857971,125.453827 651.137024,140.511917 
	C656.943665,145.047287 658.089783,151.202332 656.882874,158.035187 
	C653.379028,177.870941 649.010193,197.519104 644.173767,217.071747 
	C643.211731,220.961136 641.768616,222.405350 637.650269,220.976929 
	C631.835999,218.960281 625.848267,217.443802 619.936401,215.707901 
	C613.215210,213.734390 613.176880,213.677032 614.853333,207.164642 
	C618.382568,193.455200 621.265808,179.603607 624.243591,165.767883 
	C625.335632,160.693970 624.023071,157.810059 619.836548,154.980988 
	C596.994080,139.545059 572.072632,128.699448 545.953247,120.190460 
	C511.295746,108.899956 475.706238,101.982796 439.651337,97.579514 
	C411.726654,94.169144 383.625854,91.610374 355.445099,93.351418 
	C318.043335,95.662148 280.927277,100.288689 244.332123,108.708809 
	C212.088089,116.127792 180.703369,125.876122 151.267303,141.269577 
	C142.988129,145.599136 135.052643,150.463745 127.381439,155.803802 
	C124.399597,157.879532 123.371155,159.994751 124.117226,163.732605 
	C128.225128,184.313477 132.670639,204.808990 138.939590,224.852066 
	C140.080490,228.499710 139.399872,230.263641 135.879700,231.702881 
	C129.258789,234.409882 122.760628,237.429443 116.287239,240.479919 
	C112.870041,242.090210 111.077194,241.237701 110.076981,237.596786 
	C102.753120,210.937210 96.685951,183.998688 91.901093,156.769821 
	C90.620689,149.483566 93.129250,143.974991 98.947495,139.324371 
	C124.266655,119.086296 153.022934,105.465034 183.320816,94.654129 
	C220.027008,81.556595 257.908325,73.685486 296.461609,68.616844 
	C319.247009,65.621223 342.084290,63.547607 365.063568,62.726929 
	C388.259888,61.898506 411.238647,64.171112 434.243744,66.453690 
	C455.960510,68.608429 477.483795,71.957802 499.221313,76.683929 
z"/>
<path fill="#000000" opacity="1.000000" stroke="none" 
	d="
M441.000000,476.057129 
	C525.655945,476.049438 609.811890,476.039062 693.967834,476.050659 
	C696.461548,476.050995 698.983704,476.088409 701.442749,476.448486 
	C705.887451,477.099365 708.192749,479.938751 708.241882,484.346436 
	C708.290161,488.674774 705.630371,491.082397 701.670959,491.971619 
	C699.754517,492.402069 697.694397,492.262207 695.699280,492.262787 
	C642.705444,492.277679 589.711487,492.324249 536.718018,492.186523 
	C532.650330,492.175934 529.932556,493.351807 527.353577,496.455170 
	C499.802460,529.607544 467.409882,556.969421 429.440308,577.540833 
	C414.036469,585.886414 397.834656,592.471191 381.457275,598.632324 
	C376.533020,600.484802 371.640167,600.113159 366.797516,598.430420 
	C314.540802,580.272034 270.253113,550.118591 232.990036,509.422119 
	C229.278549,505.368652 225.492355,501.347992 222.168777,496.986053 
	C219.483963,493.462311 216.448776,492.157196 211.990723,492.169312 
	C158.997269,492.313599 106.003296,492.268982 53.009468,492.250336 
	C51.022099,492.249634 48.940861,492.341370 47.067116,491.811249 
	C43.210232,490.720032 40.585163,488.273254 40.833572,483.901947 
	C41.072460,479.698242 43.425652,477.028412 47.577011,476.451538 
	C50.692947,476.018524 53.887062,476.042694 57.046387,476.042511 
	C184.864258,476.034851 312.682129,476.047577 441.000000,476.057129 
M364.161743,565.280151 
	C368.713013,566.252380 372.605499,569.528442 377.955292,567.615234 
	C420.584869,552.369324 456.365662,526.921814 487.602661,494.612610 
	C488.134369,494.062592 488.928284,493.507843 488.278229,492.578369 
	C412.346771,492.578369 336.453247,492.578369 259.639679,492.578369 
	C289.567047,524.495972 323.374603,549.210388 364.161743,565.280151 
z"/>
<path fill="#000000" opacity="1.000000" stroke="none" 
	d="
M571.561523,345.219849 
	C560.128662,308.892456 588.092102,272.874695 625.538086,273.656281 
	C651.825195,274.204956 675.361450,295.168091 678.281494,321.394684 
	C680.977783,345.612549 671.601807,364.332458 650.600647,376.170258 
	C629.893250,387.842529 609.206604,385.634399 590.036133,371.817749 
	C581.013367,365.314819 575.353027,356.057648 571.561523,345.219849 
M603.023560,337.493988 
	C605.260864,335.901337 608.076294,335.088898 609.870544,332.780701 
	C608.354736,330.782471 606.392822,331.322845 604.677124,331.283051 
	C600.526917,331.186707 596.372742,331.269470 592.220215,331.262573 
	C582.400330,331.246277 581.823853,332.067841 585.137695,341.399445 
	C585.304199,341.868317 585.424988,342.354034 585.603149,342.818085 
	C586.615173,345.454956 588.290283,345.855286 590.679871,344.462006 
	C594.551941,342.204285 598.484375,340.050049 603.023560,337.493988 
M650.045715,340.379028 
	C653.554016,342.022369 657.067566,346.565826 660.460938,344.775055 
	C664.225830,342.788300 664.038757,337.326965 664.068665,332.962585 
	C664.070618,332.671967 663.800171,332.379517 663.425964,331.620514 
	C654.861450,331.216522 646.079834,331.097809 637.066101,332.744354 
	C641.181030,335.166656 645.295959,337.588989 650.045715,340.379028 
M634.154968,337.950714 
	C636.163757,346.449585 642.026001,352.945526 645.917419,360.466156 
	C646.728088,362.032806 648.293762,361.480347 649.357239,360.549835 
	C652.430664,357.860565 655.731750,355.321960 657.406006,350.721436 
	C649.724426,346.399536 642.215881,342.174988 634.154968,337.950714 
M599.705200,317.849060 
	C596.548340,316.040039 593.405090,314.206512 590.228088,312.433594 
	C588.871826,311.676727 587.462402,311.107086 586.403564,312.946655 
	C584.543274,316.178528 583.991699,319.782471 583.531555,323.386200 
	C583.360229,324.727631 584.279480,325.612183 585.631348,325.618958 
	C593.655640,325.659271 601.680359,325.638855 611.231384,325.638855 
	C607.255310,321.764374 603.641235,320.203430 599.705200,317.849060 
M607.806213,341.396698 
	C602.023438,344.802612 596.240601,348.208557 590.454590,351.616364 
	C592.547424,355.707733 595.540405,357.910553 598.095520,360.483643 
	C599.408508,361.805847 601.208984,362.428864 602.344849,360.540253 
	C606.650452,353.381470 610.758240,346.103699 614.940002,338.870422 
	C614.637390,338.624573 614.334839,338.378693 614.032227,338.132812 
	C612.165588,339.106720 610.298889,340.080627 607.806213,341.396698 
M620.843201,344.490936 
	C620.714294,343.717499 620.998352,342.798706 619.632935,342.045441 
	C614.788940,349.396881 610.612000,357.130737 606.399353,364.976685 
	C609.301758,367.220032 612.270996,368.027130 615.341919,368.749298 
	C619.355408,369.693085 621.136292,368.699646 620.912659,364.187195 
	C620.601074,357.899780 620.844238,351.584869 620.843201,344.490936 
M663.719543,319.739777 
	C663.046265,316.878235 662.582275,313.924652 660.003113,311.319519 
	C652.281372,315.752655 644.604370,320.160126 636.927368,324.567627 
	C637.111511,325.000397 637.295593,325.433167 637.479736,325.865936 
	C646.290955,325.964417 655.109009,326.391602 664.178406,325.514832 
	C664.024109,323.449371 663.914795,321.986694 663.719543,319.739777 
M634.972839,315.170258 
	C634.546631,316.330811 633.142090,317.185974 634.105103,319.361816 
	C638.757690,316.755981 643.348450,314.226410 647.899536,311.627411 
	C658.478699,305.586060 658.518738,303.234894 648.186401,296.140503 
	C647.817200,295.886993 647.256287,295.912811 646.263550,295.693085 
	C642.635620,301.932739 638.964722,308.246277 634.972839,315.170258 
M592.773315,302.300964 
	C590.586365,304.830505 591.178711,306.731293 594.045837,308.199097 
	C600.415466,311.460052 606.109314,316.039856 614.312866,318.978851 
	C610.358032,309.779755 605.844360,302.557404 600.742615,295.038177 
	C597.890991,297.592957 595.563477,299.678192 592.773315,302.300964 
M620.977600,310.086182 
	C620.965454,305.766113 620.930359,301.445923 620.945740,297.125977 
	C620.979980,287.510284 618.947021,286.227844 609.950256,290.242920 
	C608.906860,290.708588 607.745056,291.026154 606.788208,292.892944 
	C610.983032,300.164734 615.393921,307.811188 619.990051,315.778656 
	C621.326965,313.867065 620.713501,312.338135 620.977600,310.086182 
M630.495239,346.102844 
	C629.432190,344.765656 629.377686,342.594971 626.569885,341.868866 
	C627.194031,351.068207 626.110718,360.008118 627.456604,369.332581 
	C631.154175,368.929047 634.325928,368.576752 637.468384,367.339844 
	C640.896729,365.990356 641.153137,364.179779 639.366089,361.276215 
	C636.418823,356.487396 633.652283,351.587311 630.495239,346.102844 
M627.198303,293.789124 
	C627.198303,300.461334 627.198303,307.133514 627.198303,313.805725 
	C627.803894,313.907471 628.409546,314.009186 629.015137,314.110931 
	C633.206787,306.924072 637.398438,299.737183 641.569336,292.585846 
	C638.481995,289.949432 635.352478,289.322510 632.314636,288.558685 
	C628.718750,287.654419 626.852966,289.009094 627.198303,293.789124 
z"/>
<path fill="#000000" opacity="1.000000" stroke="none" 
	d="
M224.059662,349.933990 
	C212.772385,368.490936 192.237473,378.423920 172.584671,375.067810 
	C150.548691,371.304688 134.280731,356.130615 130.305557,333.996368 
	C124.504402,301.694824 148.951019,275.305725 178.006958,274.755859 
	C218.185989,273.995453 242.591766,313.820282 224.059662,349.933990 
M170.036438,347.468903 
	C169.273788,348.751495 168.495132,350.024902 167.751114,351.318207 
	C163.150314,359.315369 164.099396,361.193665 173.306259,362.342102 
	C173.634232,362.382996 173.957764,362.475433 174.286194,362.493927 
	C175.605087,362.568146 176.647614,362.063477 176.868073,360.707367 
	C178.132690,352.928375 177.574432,345.161743 177.476318,336.050049 
	C173.769440,340.049377 172.418457,343.664276 170.036438,347.468903 
M159.354568,322.653473 
	C162.093445,322.653473 164.832336,322.653473 168.134506,322.653473 
	C167.402756,321.416138 167.265976,320.858582 166.918365,320.646362 
	C162.248291,317.795319 157.606232,314.890747 152.842896,312.202026 
	C146.090500,308.390533 144.802078,309.082581 143.366013,316.899292 
	C143.306091,317.225525 143.285782,317.559082 143.224319,317.884949 
	C142.582489,321.287750 143.830750,322.864044 147.443497,322.686768 
	C151.086960,322.508087 154.746216,322.651184 159.354568,322.653473 
M148.059402,340.255981 
	C154.769669,336.458160 161.479935,332.660339 168.190186,328.862488 
	C160.632446,326.913818 153.411179,327.408264 146.208908,327.433716 
	C144.775818,327.438782 143.326904,328.068573 143.336746,329.606354 
	C143.362717,333.656250 143.200333,337.892181 148.059402,340.255981 
M182.567947,337.643707 
	C181.707245,343.255310 182.267090,348.900482 182.219788,354.528046 
	C182.144974,363.430695 183.098679,364.021423 191.597961,360.893127 
	C192.064972,360.721252 192.537308,360.563751 193.002838,360.388123 
	C194.944611,359.655487 195.658081,358.256592 194.571701,356.481628 
	C190.698257,350.152954 188.072617,343.072388 182.567947,337.643707 
M209.484329,311.180878 
	C203.763702,314.731964 197.532867,317.460175 192.227020,322.164948 
	C198.992554,322.691406 205.697983,322.538544 212.392075,322.748047 
	C216.484695,322.876129 217.297455,320.848022 216.582886,317.493195 
	C216.205414,315.721008 215.556351,314.005341 215.007156,312.271362 
	C214.085617,309.361786 212.312988,309.297729 209.484329,311.180878 
M196.703644,348.809906 
	C198.221527,350.932983 198.937897,353.615814 201.582520,355.650879 
	C205.339569,353.182434 208.813629,350.493378 210.692871,345.649414 
	C203.400253,341.456757 196.477325,337.476654 188.491806,332.885620 
	C190.658386,339.293640 194.000763,343.477692 196.703644,348.809906 
M151.533997,344.722626 
	C149.263626,345.960083 149.498856,347.618042 151.023514,349.162933 
	C153.398483,351.569427 155.019302,355.017487 158.980408,355.350159 
	C159.331772,355.379669 159.864517,354.850525 160.097107,354.454163 
	C163.973816,347.847961 167.816040,341.221466 171.665939,334.599518 
	C171.322708,334.323517 170.979477,334.047485 170.636246,333.771454 
	C164.459335,337.303253 158.282425,340.835022 151.533997,344.722626 
M205.144470,307.632355 
	C206.723801,306.305176 210.026749,305.739410 209.395203,303.373779 
	C208.296417,299.258026 204.972717,296.629395 200.516891,294.565674 
	C196.484116,301.776764 191.679169,308.318573 189.517273,316.606720 
	C194.515564,313.731720 199.513855,310.856720 205.144470,307.632355 
M207.463852,337.937286 
	C213.839676,341.546631 214.806183,341.040070 216.454697,333.697083 
	C217.339539,329.755829 216.196091,327.515533 211.937378,327.480957 
	C206.950104,327.440460 201.960159,327.390015 196.976120,327.522827 
	C195.666245,327.557770 193.924240,327.335785 193.168015,329.556427 
	C197.710022,332.246094 202.256531,334.938416 207.463852,337.937286 
M185.965332,309.266876 
	C189.228455,303.574432 192.491562,297.881989 195.514282,292.608917 
	C194.661819,290.713318 193.534714,290.302246 192.505539,289.815430 
	C184.795059,286.167847 182.258438,287.762390 182.364807,296.132690 
	C182.394196,298.445984 182.287521,300.761749 182.347260,303.073730 
	C182.427979,306.197571 181.968613,309.429291 183.619781,312.973206 
	C184.567474,311.491028 185.097397,310.662231 185.965332,309.266876 
M177.647797,291.084930 
	C177.550949,289.296783 177.298004,287.612823 174.847275,288.012573 
	C171.299850,288.591187 167.555481,288.662262 164.558716,291.730408 
	C167.912048,298.971619 171.838242,305.766296 176.879196,313.322266 
	C178.324371,305.383331 177.155334,298.585693 177.647797,291.084930 
M165.917953,314.319092 
	C167.277634,314.783478 168.409286,315.986725 170.475143,315.532471 
	C168.952133,310.356232 165.771606,306.113556 163.256607,301.586670 
	C158.892944,293.732239 156.640213,293.698822 151.228531,301.045929 
	C150.559433,301.954346 149.741943,302.863098 149.988449,304.750793 
	C150.142532,304.857452 150.666565,305.267151 151.233368,305.605103 
	C155.924606,308.402161 160.623779,311.185913 165.917953,314.319092 
z"/>
<path fill="#000000" opacity="1.000000" stroke="none" 
	d="
M539.823853,444.168060 
	C545.807861,448.034515 551.922302,447.006042 557.978760,445.826294 
	C560.902344,445.256775 562.753235,443.283844 562.508057,440.148285 
	C562.258972,436.961670 559.993103,435.611847 557.066345,435.311157 
	C550.604980,434.647308 544.097656,435.433350 537.618408,434.473572 
	C526.117249,432.769867 521.064758,427.347382 520.881958,415.959290 
	C520.689392,403.954224 526.545593,396.571442 537.735596,394.886871 
	C545.171021,393.767517 552.599121,393.507904 560.098755,394.724609 
	C570.526917,396.416351 576.758972,402.866730 577.788086,413.360077 
	C578.093811,416.477386 577.143921,418.197266 573.825806,418.198059 
	C571.660217,418.198578 569.492432,418.214874 567.329590,418.312805 
	C563.748840,418.474915 560.713440,418.257385 560.263611,413.481567 
	C560.031067,411.012573 557.886047,409.661438 555.431091,408.990692 
	C551.119080,407.812469 546.882385,408.255280 542.585022,409.115265 
	C539.048462,409.822937 538.071472,412.055359 538.213135,415.275787 
	C538.364502,418.716736 540.542725,419.888306 543.523438,419.950958 
	C550.013245,420.087341 556.492371,420.125916 562.979553,420.676636 
	C573.374084,421.559052 579.197510,427.384827 579.375671,437.658997 
	C579.656067,453.828064 574.249329,459.447632 556.419556,461.029755 
	C550.116150,461.589081 543.778381,461.389404 537.522827,460.064331 
	C528.066162,458.061127 522.701721,452.340240 521.182373,442.899506 
	C520.543457,438.929932 521.508789,436.679169 525.917419,436.898346 
	C526.581055,436.931366 527.257812,436.930634 527.914368,436.841339 
	C533.698853,436.054657 538.419983,436.999939 539.823853,444.168060 
z"/>
<path fill="#000000" opacity="1.000000" stroke="none" 
	d="
M506.698914,428.337921 
	C505.138428,431.380066 503.526581,433.940826 500.837494,435.482422 
	C498.122986,437.038635 498.345276,438.868256 499.622955,441.290314 
	C502.699493,447.122345 506.769196,452.436401 509.208008,458.591125 
	C501.720917,462.714752 492.583313,460.430176 488.690552,453.759186 
	C486.428131,449.882141 484.146667,446.015137 481.960785,442.095062 
	C480.883240,440.162598 479.439545,439.316376 477.169373,439.203461 
	C470.527100,438.873138 470.058502,439.221832 470.081360,445.886230 
	C470.084229,446.718079 470.109161,447.550201 470.094330,448.381683 
	C469.861603,461.418304 471.942719,460.200897 457.330597,460.200806 
	C454.455750,460.200806 452.967438,458.973785 452.970856,456.056061 
	C452.993011,437.091064 453.028564,418.126068 453.020844,399.161072 
	C453.019501,395.924255 454.657288,394.809387 457.708618,394.830658 
	C468.022949,394.902588 478.349487,394.563141 488.649902,394.950775 
	C501.288422,395.426422 507.702545,402.144867 508.401215,414.737396 
	C508.651398,419.246582 508.642059,423.718231 506.698914,428.337921 
M491.736664,418.253815 
	C491.643250,414.160309 491.722595,409.781738 486.137512,409.351349 
	C481.997925,409.032349 477.814880,409.280304 473.651215,409.269470 
	C471.797150,409.264618 470.568542,409.824951 470.110809,411.928772 
	C467.922577,421.987030 470.046417,424.826172 479.973755,424.834869 
	C481.472809,424.836182 482.979309,424.730957 484.469513,424.844177 
	C488.711090,425.166443 491.101196,423.270782 491.736664,418.253815 
z"/>
<path fill="#000000" opacity="1.000000" stroke="none" 
	d="
M167.991608,455.114258 
	C157.983582,446.729675 156.689178,435.589417 157.189835,424.025085 
	C157.455948,417.877930 158.676178,411.811798 162.074875,406.417847 
	C168.230820,396.647949 178.076828,394.662567 188.449203,393.965576 
	C194.130447,393.583801 199.775803,394.431793 205.187271,396.131348 
	C212.525787,398.436157 218.051453,402.964111 220.902145,410.346771 
	C224.756165,420.327820 224.991913,430.507721 222.254074,440.738525 
	C219.391922,451.433777 212.176590,457.788330 201.481293,459.978912 
	C189.931473,462.344452 178.641266,461.951782 167.991608,455.114258 
M182.557083,445.158386 
	C197.626541,450.202637 206.784119,443.664337 206.806076,427.830963 
	C206.808624,426.001923 206.841873,424.159576 206.648636,422.346008 
	C205.927948,415.582581 202.088821,410.811157 196.179291,409.180878 
	C186.990295,406.645935 179.084381,409.643585 175.782028,416.914795 
	C171.373260,426.622162 174.257233,439.847992 182.557083,445.158386 
z"/>
<path fill="#000000" opacity="1.000000" stroke="none" 
	d="
M333.025848,408.283722 
	C320.871124,409.255493 316.372253,414.113770 316.268127,425.919617 
	C316.260803,426.751892 316.261139,427.584351 316.266998,428.416656 
	C316.374054,443.654694 327.544342,450.955566 341.686646,445.039337 
	C344.056946,444.047699 345.972076,442.626038 347.229523,440.270447 
	C348.888550,437.162598 360.538147,435.224182 363.289581,437.495667 
	C364.677399,438.641449 364.384369,440.239746 364.199493,441.673157 
	C363.226624,449.216675 359.314484,454.830017 352.270966,457.654846 
	C340.398346,462.416382 328.290894,462.616241 316.194550,458.293274 
	C307.541016,455.200745 302.937225,448.602905 300.807251,440.031769 
	C299.014832,432.819000 299.011749,425.417389 300.145172,418.193176 
	C302.347565,404.155548 310.452881,396.763062 324.709747,394.644623 
	C334.497589,393.190277 343.912598,393.939423 352.858704,398.532410 
	C358.919373,401.643951 362.347137,406.670837 363.949646,413.129211 
	C364.738861,416.309875 364.119568,418.396057 360.238007,418.255829 
	C357.411774,418.153748 354.579071,418.238281 351.749390,418.220764 
	C350.210388,418.211243 348.587341,418.110138 348.017853,416.370697 
	C345.650208,409.138458 339.470062,408.882080 333.025848,408.283722 
z"/>
<path fill="#000000" opacity="1.000000" stroke="none" 
	d="
M379.177490,450.240479 
	C385.586334,433.380432 391.962921,416.917084 398.026733,400.339325 
	C399.515503,396.269135 401.583405,394.635376 406.015747,394.769318 
	C419.779999,395.185455 416.455383,393.193451 421.117096,405.084534 
	C427.619965,421.672058 433.740112,438.409271 440.148071,455.034668 
	C441.619446,458.852112 440.561981,460.371552 436.586975,460.182312 
	C435.256775,460.118958 433.888885,459.984161 432.593353,460.205231 
	C426.984344,461.162323 423.751617,458.867828 422.581512,453.340515 
	C421.763123,449.474670 419.342987,447.959839 415.332367,448.213806 
	C410.851044,448.497589 406.326538,448.460449 401.841034,448.206116 
	C398.037537,447.990417 396.072418,449.521301 394.901886,453.096619 
	C394.116425,455.495636 394.079559,458.944275 391.086487,459.705902 
	C386.889587,460.773834 382.476959,460.414337 378.180847,459.891937 
	C376.440063,459.680206 376.415314,458.062103 376.838104,456.707672 
	C377.482544,454.643219 378.291077,452.630005 379.177490,450.240479 
M413.325897,428.996796 
	C411.993317,425.683014 410.660706,422.369202 409.328125,419.055420 
	C406.170990,423.625183 404.100281,428.143219 402.977478,433.104126 
	C405.926758,434.452637 408.600433,433.756989 411.202209,433.863800 
	C414.638123,434.004852 414.580261,432.112000 413.325897,428.996796 
z"/>
<path fill="#000000" opacity="1.000000" stroke="none" 
	d="
M253.118408,426.122650 
	C257.524109,420.602509 262.967010,416.375519 266.451691,410.584442 
	C264.710297,408.773468 262.940369,409.275116 261.353027,409.255249 
	C255.354904,409.180176 249.355316,409.216797 243.356277,409.219086 
	C235.329224,409.222137 232.454666,405.011871 235.129501,397.278534 
	C235.799286,395.342072 237.179611,394.818481 238.983322,394.819031 
	C253.980698,394.823547 268.978058,394.840912 283.975433,394.825897 
	C286.612640,394.823242 288.013184,395.975891 288.101959,398.678314 
	C288.283264,404.196503 288.313538,409.283508 283.756226,413.845428 
	C275.763641,421.846100 268.489166,430.564545 260.921326,438.988983 
	C259.266907,440.830627 257.319061,442.449677 256.168396,445.190094 
	C258.955444,446.309875 261.768707,445.731995 264.484253,445.762817 
	C270.815643,445.834686 277.150635,445.877502 283.479797,445.736145 
	C286.891388,445.659973 288.471954,446.984406 288.193420,450.443085 
	C288.100098,451.601715 288.078705,452.786926 288.208984,453.939117 
	C288.755341,458.769379 286.572815,460.368530 281.846466,460.294983 
	C268.018585,460.079865 254.184235,460.102234 240.355011,460.259674 
	C236.188721,460.307129 234.961044,458.647308 234.768723,454.647919 
	C234.486984,448.789154 235.788956,444.101715 240.373123,439.985352 
	C244.934555,435.889404 248.735626,430.946716 253.118408,426.122650 
z"/>
<path fill="#000000" opacity="1.000000" stroke="none" 
	d="
M289.946777,152.273193 
	C290.159332,153.865845 290.414886,155.028091 290.377747,156.180908 
	C290.284363,159.078186 293.215759,162.592728 289.383331,164.744949 
	C284.130127,167.695053 278.350525,166.441177 274.705597,162.029205 
	C269.850403,156.152267 265.029968,150.246597 259.393524,143.376877 
	C259.157043,150.956177 260.585510,157.229340 261.757843,163.386856 
	C262.760681,168.654175 260.077942,169.264099 256.299835,169.957474 
	C252.324966,170.686951 251.048752,168.981262 250.570389,165.242447 
	C249.326401,155.519608 247.650696,145.852768 246.303696,136.141891 
	C245.922653,133.394897 244.006302,130.029404 247.604248,128.098984 
	C252.319702,125.568977 258.455231,126.522942 261.276855,129.937897 
	C265.404083,134.932938 269.443604,140.000366 273.530975,145.028442 
	C274.561371,146.295944 275.351105,147.809494 277.431244,148.749954 
	C278.245789,144.755417 276.554718,141.179474 276.294373,137.527664 
	C276.094147,134.719681 275.525574,131.924454 274.947052,129.159927 
	C273.965546,124.469879 276.836700,123.499222 280.513306,122.931747 
	C284.370117,122.336449 285.876953,123.908737 286.334656,127.685120 
	C287.313263,135.759918 288.660400,143.790039 289.946777,152.273193 
z"/>
<path fill="#000000" opacity="1.000000" stroke="none" 
	d="
M215.413452,178.711212 
	C209.575851,180.169525 204.214172,182.286926 198.405518,180.462051 
	C195.935074,179.685913 193.639938,178.692780 192.320602,176.428055 
	C190.980560,174.127731 188.329483,171.801453 190.883850,168.879059 
	C193.008133,166.448730 198.575333,166.639984 201.110718,168.937912 
	C203.971985,171.531189 212.359924,170.929581 214.908569,167.965393 
	C215.892578,166.820938 216.059723,165.521683 215.410843,164.252365 
	C214.531189,162.531586 212.855469,162.110748 211.132599,162.433121 
	C207.864365,163.044617 204.628601,163.833038 201.385605,164.575287 
	C194.040451,166.256439 188.875198,163.769257 186.452454,157.364532 
	C183.501343,149.563095 185.539719,143.640076 192.468170,140.053894 
	C197.426300,137.487549 202.829865,136.278809 208.299316,135.910233 
	C213.397552,135.566666 217.855621,137.395645 220.317719,142.329117 
	C221.298599,144.294601 223.458923,146.876205 220.623062,148.443710 
	C217.790207,150.009583 214.337891,152.063446 210.992447,149.060593 
	C207.433380,145.866028 203.325134,145.441437 199.393372,147.929947 
	C197.651443,149.032455 196.716278,150.469315 197.367599,152.528046 
	C198.092606,154.819702 199.931656,154.862396 201.851440,154.449371 
	C205.102798,153.749863 208.324570,152.903137 211.589249,152.277237 
	C219.591873,150.742966 224.078857,153.052124 226.262924,159.705154 
	C229.068207,168.250519 227.095108,173.304581 219.465271,177.022079 
	C218.270645,177.604156 217.012299,178.055435 215.413452,178.711212 
z"/>
<path fill="#000000" opacity="1.000000" stroke="none" 
	d="
M513.008423,146.700775 
	C516.271851,146.935577 517.801758,145.717392 517.953064,142.765167 
	C518.087402,140.143692 516.785034,138.658661 514.405823,138.086868 
	C510.557007,137.161804 506.942139,135.875443 503.743683,140.291901 
	C501.362823,143.579376 497.477631,141.400940 494.631348,140.191757 
	C491.571533,138.891907 493.249268,136.126862 494.137543,134.124405 
	C496.236328,129.393021 500.249695,127.066360 505.229309,126.886543 
	C511.625092,126.655602 517.854553,127.912331 523.535278,130.951813 
	C529.838989,134.324646 531.462463,140.196716 528.799011,148.749725 
	C526.880249,154.911285 522.160767,157.855225 515.257202,157.045273 
	C512.453491,156.716324 509.681885,156.116791 506.893494,155.653442 
	C504.277802,155.218811 502.403534,155.977097 501.439880,159.257278 
	C507.977325,161.483551 514.564453,162.035385 521.029236,163.055237 
	C524.976990,163.678024 526.477356,165.316574 525.382019,169.459778 
	C524.547852,172.615280 522.910461,173.470810 519.961792,172.940674 
	C510.965881,171.323364 501.972321,169.687195 492.953552,168.206390 
	C489.005859,167.558243 487.287872,165.767792 488.693054,161.733322 
	C488.910004,161.110352 488.958221,160.430191 489.107178,159.781693 
	C492.112701,146.695755 496.808563,143.668793 510.143707,146.216614 
	C510.960022,146.372559 511.776947,146.525421 513.008423,146.700775 
z"/>
<path fill="#000000" opacity="1.000000" stroke="none" 
	d="
M425.481384,146.055496 
	C421.873993,146.061478 418.709167,145.972137 415.545380,146.000656 
	C413.060455,146.023056 410.993866,146.708725 410.609436,150.380386 
	C417.331604,151.180130 423.979309,150.524185 430.491638,151.561234 
	C433.527008,152.044601 436.015289,152.029526 435.717957,156.296951 
	C435.443329,160.238022 433.718262,161.447296 430.010803,161.198471 
	C420.881592,160.585785 411.740509,160.146133 402.602203,159.675446 
	C399.500336,159.515686 398.072784,158.166122 398.576263,154.902466 
	C398.980682,152.281189 398.815186,149.554214 399.379822,146.978775 
	C401.048065,139.369720 405.351959,135.962646 413.100555,135.798080 
	C416.097534,135.734421 419.123230,135.970108 422.086212,135.633209 
	C425.517761,135.243042 426.787415,131.490173 424.563477,128.927597 
	C422.148895,126.145439 413.704620,126.570747 411.478699,129.586624 
	C409.625854,132.097031 404.126038,133.315186 401.417480,131.873718 
	C399.961182,131.098709 399.904510,129.866119 400.019165,128.470169 
	C400.405365,123.768448 404.024963,119.237625 408.718933,117.882584 
	C415.181976,116.016815 421.660461,116.664162 427.914673,118.643440 
	C434.624908,120.767029 437.427887,125.393105 436.979858,132.387360 
	C436.422455,141.088257 434.067169,143.990707 425.481384,146.055496 
z"/>
<path fill="#000000" opacity="1.000000" stroke="none" 
	d="
M478.314636,160.361298 
	C469.811432,166.409164 457.511444,166.281738 449.488129,160.341904 
	C447.569061,158.921158 446.157654,157.132996 445.183167,154.941345 
	C441.025543,145.590851 442.847382,136.596436 447.311249,128.064117 
	C449.765503,123.373024 454.343170,121.084900 459.709442,120.815948 
	C461.868683,120.707726 464.051300,120.690262 466.203156,120.870956 
	C479.509827,121.988319 486.530151,130.825256 484.712067,144.034744 
	C483.908966,149.869629 482.739014,155.549362 478.314636,160.361298 
M457.014740,152.504578 
	C462.660370,156.070633 468.031372,155.878403 470.663757,151.532654 
	C473.493988,146.860413 474.569275,141.692062 472.836334,136.250320 
	C471.521698,132.122177 468.125122,130.753860 464.365814,130.460236 
	C460.800629,130.181778 457.738129,131.747940 456.352295,135.209610 
	C454.137817,140.741089 453.074921,146.386826 457.014740,152.504578 
z"/>
<path fill="#000000" opacity="1.000000" stroke="none" 
	d="
M355.070984,116.836639 
	C361.722137,116.807281 367.885101,116.886658 374.043121,116.746620 
	C377.419952,116.669823 379.730713,116.964180 379.731537,121.413742 
	C379.732330,125.598900 377.958221,126.412842 374.312805,126.365906 
	C369.666687,126.306084 365.014709,126.794342 360.363342,127.004005 
	C357.841370,127.117683 356.237183,128.025574 356.334320,130.892227 
	C356.435974,133.893097 358.551392,133.763962 360.577881,133.742798 
	C363.406799,133.713257 366.273895,133.863541 369.053314,133.453476 
	C372.423462,132.956238 374.129791,133.878036 374.260040,137.470901 
	C374.384583,140.904541 373.869598,143.467361 369.524109,143.216171 
	C366.870819,143.062836 364.198090,143.254181 361.533966,143.276901 
	C359.255554,143.296341 357.024841,143.386414 357.042908,146.535080 
	C357.060150,149.539474 359.026337,149.936127 361.452942,149.895996 
	C366.280670,149.816147 371.114349,149.958847 375.937531,149.785400 
	C379.651123,149.651825 380.310791,151.681442 380.390564,154.793716 
	C380.472046,157.969238 379.334656,159.270065 376.079956,159.326309 
	C367.605865,159.472717 359.134094,159.822906 350.665649,160.190002 
	C347.035309,160.347382 345.669861,158.798294 345.632172,155.169083 
	C345.526825,145.023010 345.101807,134.880753 344.898529,124.735062 
	C344.745972,117.119980 344.811829,117.119202 352.583801,116.924759 
	C353.249603,116.908104 353.915100,116.877808 355.070984,116.836639 
z"/>
<path fill="#000000" opacity="1.000000" stroke="none" 
	d="
M568.895142,175.697281 
	C566.192444,180.133759 561.887512,180.962738 557.819885,180.922714 
	C551.007507,180.855698 544.257080,179.785889 538.177429,176.190048 
	C535.762878,174.761978 534.044128,172.813339 533.074951,170.270767 
	C531.859009,167.080933 531.019348,163.615524 534.252075,161.209976 
	C536.489929,159.544785 542.942749,162.918304 544.259216,166.052216 
	C545.884460,169.921112 554.948486,172.265427 558.142639,169.642975 
	C560.889954,167.387375 559.950745,164.061432 555.638794,162.742111 
	C551.811707,161.571152 550.917847,159.691605 552.218872,156.135880 
	C552.998535,154.004929 553.960815,152.549301 556.544556,153.285889 
	C558.531006,153.852188 560.367065,153.550491 561.016541,151.372635 
	C561.705505,149.062195 559.749573,148.034317 558.140442,147.334991 
	C555.052673,145.993118 552.054382,145.203262 548.895447,147.883087 
	C545.438110,150.816116 541.382935,148.885956 538.933350,146.626907 
	C536.294434,144.193237 538.969788,141.133896 540.813538,138.868637 
	C542.448547,136.859924 544.812500,135.964142 547.416443,135.791946 
	C554.238770,135.340805 560.702515,136.807251 566.649719,140.027145 
	C573.788452,143.892166 575.534119,151.233856 570.778137,157.739426 
	C569.150330,159.966034 568.815918,161.511871 570.114685,163.922012 
	C572.226746,167.841324 570.937378,171.677734 568.895142,175.697281 
z"/>
<path fill="#000000" opacity="1.000000" stroke="none" 
	d="
M336.514709,144.989288 
	C340.406860,149.262909 338.008392,152.930725 335.469452,156.135025 
	C330.686005,162.172043 316.715149,164.598862 307.372742,161.393005 
	C300.123749,158.905502 295.916809,152.278854 295.679565,142.836151 
	C295.608490,140.006821 295.553528,137.158844 295.788361,134.344193 
	C296.184418,129.596878 298.375092,125.557526 302.348846,123.064835 
	C311.146027,117.546478 320.509766,117.159042 330.044647,121.148270 
	C331.916229,121.931313 333.492279,123.331886 334.494080,125.063568 
	C335.836609,127.384171 338.452240,129.764465 336.241974,132.661789 
	C334.560242,134.866226 327.618134,133.962708 325.567322,131.528885 
	C322.706848,128.134155 319.051300,127.921959 315.102112,128.674011 
	C311.008392,129.453568 307.807495,131.452866 307.122955,135.817657 
	C306.283691,141.168915 306.223480,146.693893 310.528687,150.710434 
	C314.073639,154.017624 318.578247,153.275360 322.804413,151.805542 
	C324.006317,151.387543 325.559998,150.647949 326.012238,149.635773 
	C328.076538,145.015656 332.157959,145.186661 336.514709,144.989288 
z"/>
<path fill="#000000" opacity="1.000000" stroke="none" 
	d="
M238.607605,132.692963 
	C240.905502,144.154953 242.970566,155.254929 245.309113,166.296967 
	C246.198456,170.496155 244.945908,172.349030 240.668961,173.011917 
	C236.722885,173.623535 234.915512,172.612061 234.199677,168.508926 
	C232.345459,157.880569 230.115601,147.317627 228.025543,136.730576 
	C227.577087,134.458969 227.431351,131.967636 230.247101,131.544876 
	C232.936615,131.141083 236.144730,128.136200 238.607605,132.692963 
z"/>
<path fill="#000000" opacity="1.000000" stroke="none" 
	d="
M400.256653,523.913330 
	C400.003174,531.552795 398.243347,538.284729 391.065338,541.297974 
	C382.980133,544.692017 374.484192,545.108215 366.738708,540.089783 
	C360.247894,535.884277 357.766632,525.066956 360.563507,515.513428 
	C362.958710,507.332031 368.521790,503.121826 377.562042,502.881317 
	C380.535126,502.802216 383.608765,502.733582 386.482117,503.363739 
	C396.156799,505.485474 400.176544,511.535431 400.256653,523.913330 
M379.553070,512.113770 
	C372.241089,512.811890 369.797974,516.168091 370.264069,524.874329 
	C370.596344,531.080933 374.039642,534.619324 379.852539,534.727661 
	C385.399811,534.830994 389.345917,530.984863 389.707642,525.054016 
	C390.184235,517.240723 386.921204,511.469055 379.553070,512.113770 
z"/>
</svg>