<svg xmlns="http://www.w3.org/2000/svg" version="1.1" xmlns:xlink="http://www.w3.org/1999/xlink" xmlns:svgjs="http://svgjs.dev/svgjs" viewBox="0 0 7.720856204641285 6.7900393822821234"><g transform="matrix(1,0,0,1,0.603126466578455,5.085912915703668)"><g><path d=" M 0.663 0.009000000000000119 Q 0.843 0.009000000000000119 0.97575 0.07574999999999998 Q 1.1085 0.14250000000000007 1.1812500000000001 0.264 Q 1.254 0.38550000000000006 1.254 0.555 Q 1.254 0.7230000000000001 1.1812500000000001 0.8452500000000001 Q 1.1085 0.9675 0.97575 1.0342500000000001 Q 0.843 1.101 0.663 1.101 Q 0.483 1.101 0.35025 1.0342500000000001 Q 0.2175 0.9675 0.1455 0.8460000000000001 Q 0.0735 0.7245000000000001 0.0735 0.555 Q 0.0735 0.387 0.1455 0.26475000000000004 Q 0.2175 0.14250000000000007 0.35025 0.07574999999999998 Q 0.483 0.009000000000000119 0.663 0.009000000000000119 M 0.663 1.038 Q 0.7695 1.038 0.84675 0.97875 Q 0.924 0.9195000000000001 0.96525 0.8115000000000001 Q 1.0065 0.7035 1.0065 0.555 Q 1.0065 0.4065000000000001 0.96525 0.2985000000000001 Q 0.924 0.1905 0.84675 0.1312500000000001 Q 0.7695 0.07200000000000006 0.663 0.07200000000000006 Q 0.558 0.07200000000000006 0.48075 0.1312500000000001 Q 0.4035 0.1905 0.3615 0.2985000000000001 Q 0.3195 0.4065000000000001 0.3195 0.555 Q 0.3195 0.7035 0.3615 0.8115000000000001 Q 0.4035 0.9195000000000001 0.48075 0.97875 Q 0.558 1.038 0.663 1.038 M 2.2065205078125 0.009000000000000119 Q 2.2065205078125 0.009000000000000119 2.2065205078125 0.015750000000000153 Q 2.2065205078125 0.022499999999999964 2.2065205078125 0.022499999999999964 L 1.6140205078125 1.08 L 1.3665205078125 1.08 L 1.3665205078125 1.0665 L 1.9155205078125002 0.09150000000000003 L 1.3875205078125001 0.09150000000000003 L 1.3875205078125001 0.02849999999999997 L 2.0475205078125 0.02849999999999997 Q 2.0775205078125003 0.02849999999999997 2.1112705078125003 0.025500000000000078 Q 2.1450205078125 0.022499999999999964 2.1712705078125003 0.018000000000000016 Q 2.1975205078125 0.013500000000000068 2.2065205078125 0.009000000000000119 M 2.1900205078125 1.0170000000000001 L 2.1810205078125002 1.08 L 1.4715205078125002 1.08 L 1.4715205078125002 1.0170000000000001 L 2.1900205078125 1.0170000000000001 M 2.2485205078125 0.7785000000000001 L 2.1945205078125003 1.08 L 1.9200205078125 1.08 L 1.9395205078125 1.032 L 1.9635205078125 1.0170000000000001 Q 2.0625205078125 1.0170000000000001 2.1337705078125 0.9517500000000001 Q 2.2050205078125003 0.8865000000000001 2.2335205078125 0.7785000000000001 L 2.2485205078125 0.7785000000000001 M 1.5540205078125 0.09150000000000003 Q 1.4835205078125 0.09300000000000008 1.4430205078125002 0.1342500000000001 Q 1.4025205078125 0.1755000000000001 1.4025205078125 0.2460000000000001 L 1.4025205078125 0.264 L 1.3875205078125001 0.264 L 1.3875205078125001 0.08700000000000008 L 1.5540205078125 0.08700000000000008 L 1.5540205078125 0.09150000000000003 M 1.3875205078125001 0.0015000000000000568 Q 1.4025205078125 0.007500000000000062 1.4332705078125 0.013500000000000068 Q 1.4640205078125001 0.019500000000000073 1.5015205078125002 0.02400000000000002 Q 1.5390205078125 0.02849999999999997 1.5705205078125002 0.02849999999999997 L 1.3875205078125001 0.04500000000000015 L 1.3875205078125001 0.0015000000000000568 M 3.3675644531250004 0.6420000000000001 L 3.381064453125 0.9000000000000001 Q 3.3480644531250006 0.9555 3.2925644531250002 1.0005000000000002 Q 3.2370644531250004 1.0455 3.1545644531250003 1.07325 Q 3.0720644531250003 1.101 2.959564453125 1.101 Q 2.776564453125 1.0995000000000001 2.6393144531250003 1.0342500000000001 Q 2.502064453125 0.9690000000000001 2.4270644531250003 0.8475 Q 2.352064453125 0.7260000000000001 2.352064453125 0.5535000000000001 Q 2.352064453125 0.38550000000000006 2.4255644531250002 0.2632500000000001 Q 2.4990644531250004 0.14100000000000001 2.6363144531250002 0.07499999999999996 Q 2.773564453125 0.009000000000000119 2.964064453125 0.009000000000000119 Q 3.0840644531250003 0.009000000000000119 3.1793144531250004 0.03300000000000014 Q 3.2745644531250004 0.05699999999999994 3.337564453125 0.09150000000000003 L 3.3405644531250003 0.3480000000000001 L 3.327064453125 0.3480000000000001 Q 3.286564453125 0.1995 3.195064453125 0.13575000000000004 Q 3.103564453125 0.07200000000000006 2.9805644531250004 0.07200000000000006 Q 2.8605644531250003 0.07200000000000006 2.775064453125 0.13050000000000006 Q 2.6895644531250005 0.18900000000000006 2.643064453125 0.2955000000000001 Q 2.596564453125 0.402 2.596564453125 0.5505000000000001 Q 2.596564453125 0.6990000000000001 2.6408144531250004 0.807 Q 2.6850644531250003 0.915 2.7668144531250003 0.9750000000000001 Q 2.8485644531250003 1.0350000000000001 2.959564453125 1.038 Q 3.075064453125 1.038 3.1545644531250003 1.0005000000000002 Q 3.2340644531250002 0.9630000000000001 3.2828144531250003 0.8760000000000001 Q 3.331564453125 0.7890000000000001 3.355564453125 0.6420000000000001 L 3.3675644531250004 0.6420000000000001 M 3.9886083984375005 0 L 4.4776083984375 1.0710000000000002 L 4.2091083984375 1.0710000000000002 L 3.8971083984375 0.2895000000000001 L 3.9886083984375005 0 M 3.6661083984375002 0.9705 Q 3.6541083984375002 1.0005000000000002 3.6616083984375005 1.0215 Q 3.6691083984375004 1.0425 3.6871083984375 1.05375 Q 3.7051083984375004 1.0650000000000002 3.7231083984375 1.0650000000000002 L 3.7366083984375003 1.0650000000000002 L 3.7366083984375003 1.08 L 3.4156083984375005 1.08 L 3.4156083984375005 1.0650000000000002 Q 3.4156083984375005 1.0650000000000002 3.4223583984375003 1.0650000000000002 Q 3.4291083984375 1.0650000000000002 3.4291083984375 1.0650000000000002 Q 3.4636083984375 1.0650000000000002 3.5003583984375 1.04325 Q 3.5371083984375002 1.0215 3.5611083984375003 0.9705 L 3.6661083984375002 0.9705 M 3.9886083984375005 0 L 3.9946083984375003 0.18300000000000005 L 3.6226083984375004 1.0755000000000001 L 3.5131083984375002 1.0755000000000001 L 3.9016083984375003 0.1965 Q 3.9061083984375005 0.1875 3.9173583984375004 0.16275000000000006 Q 3.9286083984375004 0.138 3.9413583984375005 0.10650000000000004 Q 3.9541083984375005 0.07499999999999996 3.9646083984375005 0.04574999999999996 Q 3.9751083984375004 0.01649999999999996 3.9751083984375004 0 L 3.9886083984375005 0 M 4.146108398437501 0.7230000000000001 L 4.146108398437501 0.786 L 3.7051083984375004 0.786 L 3.7051083984375004 0.7230000000000001 L 4.146108398437501 0.7230000000000001 M 4.168608398437501 0.9705 L 4.4311083984375 0.9705 Q 4.4566083984375 1.0215 4.4926083984375005 1.04325 Q 4.5286083984375 1.0650000000000002 4.5631083984375005 1.0650000000000002 Q 4.5631083984375005 1.0650000000000002 4.5691083984375 1.0650000000000002 Q 4.5751083984375 1.0650000000000002 4.5751083984375 1.0650000000000002 L 4.5751083984375 1.08 L 4.098108398437501 1.08 L 4.098108398437501 1.0650000000000002 L 4.1116083984375 1.0650000000000002 Q 4.1416083984375005 1.0650000000000002 4.1641083984375005 1.0402500000000001 Q 4.1866083984375 1.0155 4.168608398437501 0.9705 M 4.924578369140625 0.030000000000000027 L 5.118078369140625 0.030000000000000027 Q 5.185578369140625 0.030000000000000027 5.250078369140626 0.04500000000000015 Q 5.314578369140626 0.06000000000000005 5.364828369140626 0.09300000000000008 Q 5.415078369140625 0.126 5.445078369140625 0.18000000000000005 Q 5.4750783691406255 0.2340000000000001 5.4750783691406255 0.3135 Q 5.4750783691406255 0.37650000000000006 5.448828369140625 0.4387500000000001 Q 5.422578369140625 0.5010000000000001 5.368578369140625 0.54525 Q 5.314578369140626 0.5895000000000001 5.229078369140625 0.5985 Q 5.277078369140625 0.6135 5.316828369140626 0.6525000000000001 Q 5.3565783691406255 0.6915 5.3820783691406255 0.7305 Q 5.383578369140626 0.7335 5.399328369140625 0.7575000000000001 Q 5.415078369140625 0.7815000000000001 5.438328369140626 0.8167500000000001 Q 5.461578369140625 0.8520000000000001 5.487078369140626 0.8880000000000001 Q 5.512578369140625 0.924 5.533578369140626 0.9510000000000001 Q 5.566578369140625 0.9915 5.593578369140626 1.01625 Q 5.620578369140626 1.0410000000000001 5.650578369140625 1.0522500000000001 Q 5.680578369140625 1.0635000000000001 5.719578369140626 1.0650000000000002 L 5.719578369140626 1.08 L 5.572578369140626 1.08 Q 5.491578369140625 1.08 5.425578369140625 1.0650000000000002 Q 5.359578369140626 1.05 5.308578369140625 1.01625 Q 5.257578369140625 0.9825 5.220078369140626 0.924 Q 5.208078369140625 0.906 5.1938283691406255 0.8782500000000001 Q 5.179578369140625 0.8505 5.164578369140625 0.8190000000000001 Q 5.149578369140626 0.7875000000000001 5.135328369140625 0.7582500000000001 Q 5.121078369140625 0.7290000000000001 5.110578369140626 0.7050000000000001 Q 5.1000783691406255 0.681 5.095578369140625 0.6675 Q 5.0760783691406255 0.6195 5.049828369140625 0.5955000000000001 Q 5.023578369140625 0.5715 4.993578369140625 0.5670000000000001 L 4.993578369140625 0.552 Q 4.998078369140625 0.552 5.011578369140626 0.552 Q 5.025078369140625 0.552 5.040078369140625 0.552 Q 5.080578369140626 0.552 5.118828369140625 0.5355000000000001 Q 5.157078369140626 0.519 5.187078369140625 0.48150000000000004 Q 5.2170783691406255 0.44400000000000006 5.229078369140625 0.378 Q 5.232078369140625 0.36450000000000005 5.234328369140625 0.34650000000000003 Q 5.236578369140625 0.3285 5.235078369140625 0.30600000000000005 Q 5.230578369140625 0.19800000000000006 5.181078369140625 0.14775000000000005 Q 5.131578369140626 0.09750000000000003 5.058078369140626 0.09600000000000009 Q 5.037078369140626 0.09450000000000003 5.012328369140626 0.09525000000000006 Q 4.987578369140626 0.09600000000000009 4.967328369140626 0.09600000000000009 Q 4.947078369140625 0.09600000000000009 4.939578369140626 0.09600000000000009 Q 4.939578369140626 0.09450000000000003 4.9358283691406255 0.0787500000000001 Q 4.932078369140625 0.06299999999999994 4.928328369140625 0.046499999999999986 Q 4.924578369140625 0.030000000000000027 4.924578369140625 0.030000000000000027 M 4.944078369140626 0.030000000000000027 L 4.944078369140626 1.08 L 4.719078369140625 1.08 L 4.719078369140625 0.030000000000000027 L 4.944078369140626 0.030000000000000027 M 4.7235783691406255 0.9705 L 4.7235783691406255 1.08 L 4.603578369140625 1.08 L 4.603578369140625 1.0650000000000002 Q 4.605078369140625 1.0650000000000002 4.613328369140626 1.0650000000000002 Q 4.621578369140625 1.0650000000000002 4.623078369140625 1.0650000000000002 Q 4.662078369140626 1.0650000000000002 4.689828369140625 1.03725 Q 4.717578369140625 1.0095 4.719078369140625 0.9705 L 4.7235783691406255 0.9705 M 4.7235783691406255 0.13950000000000007 L 4.719078369140625 0.13950000000000007 Q 4.717578369140625 0.10050000000000003 4.689828369140625 0.07275000000000009 Q 4.662078369140626 0.04500000000000015 4.623078369140625 0.04500000000000015 Q 4.621578369140625 0.04500000000000015 4.613328369140626 0.04500000000000015 Q 4.605078369140625 0.04500000000000015 4.603578369140625 0.04500000000000015 L 4.603578369140625 0.030000000000000027 L 4.7235783691406255 0.030000000000000027 L 4.7235783691406255 0.13950000000000007 M 4.939578369140626 0.9705 L 4.944078369140626 0.9705 Q 4.944078369140626 1.0095 4.972578369140625 1.03725 Q 5.001078369140625 1.0650000000000002 5.040078369140625 1.0650000000000002 Q 5.043078369140625 1.0650000000000002 5.050578369140625 1.0650000000000002 Q 5.058078369140626 1.0650000000000002 5.058078369140626 1.0650000000000002 L 5.058078369140626 1.08 L 4.939578369140626 1.08 L 4.939578369140626 0.9705 M 6.063098876953125 0.009000000000000119 Q 6.093098876953126 0.009000000000000119 6.1373488769531255 0.01200000000000001 Q 6.181598876953125 0.015000000000000124 6.228848876953125 0.0202500000000001 Q 6.276098876953125 0.025500000000000078 6.311348876953126 0.030750000000000055 Q 6.346598876953125 0.03600000000000003 6.360098876953126 0.04200000000000004 L 6.342098876953125 0.24450000000000005 L 6.327098876953126 0.24450000000000005 Q 6.327098876953126 0.1665000000000001 6.269348876953126 0.11925000000000008 Q 6.211598876953126 0.07200000000000006 6.1155988769531255 0.07200000000000006 Q 6.028598876953126 0.07200000000000006 5.9753488769531256 0.1140000000000001 Q 5.922098876953125 0.15600000000000003 5.919098876953125 0.21600000000000008 Q 5.917598876953125 0.261 5.947598876953125 0.29400000000000004 Q 5.977598876953126 0.32700000000000007 6.024098876953126 0.35550000000000004 L 6.310598876953126 0.5415000000000001 Q 6.379598876953126 0.5805 6.414848876953125 0.6435000000000001 Q 6.450098876953126 0.7065000000000001 6.445598876953126 0.7905000000000001 Q 6.438098876953125 0.9375 6.333098876953126 1.01925 Q 6.228098876953125 1.101 6.048098876953126 1.101 Q 5.982098876953126 1.101 5.919848876953125 1.08975 Q 5.8575988769531255 1.0785 5.8095988769531255 1.0582500000000001 Q 5.7615988769531254 1.038 5.733098876953125 1.0095 Q 5.721098876953126 0.9765 5.722598876953126 0.93 Q 5.724098876953126 0.8835000000000001 5.736848876953125 0.8355000000000001 Q 5.749598876953126 0.7875000000000001 5.769098876953126 0.756 L 5.782598876953125 0.756 Q 5.776598876953125 0.8325 5.8103488769531255 0.89775 Q 5.844098876953126 0.9630000000000001 5.909348876953126 1.00125 Q 5.9745988769531255 1.0395 6.064598876953125 1.038 Q 6.163598876953126 1.0365 6.217598876953126 0.9877500000000001 Q 6.271598876953125 0.9390000000000001 6.271598876953125 0.8700000000000001 Q 6.271598876953125 0.8235000000000001 6.243848876953126 0.786 Q 6.216098876953126 0.7485 6.153098876953125 0.7140000000000001 L 5.890598876953126 0.54 Q 5.8110988769531255 0.4950000000000001 5.775098876953126 0.4245000000000001 Q 5.7390988769531255 0.3540000000000001 5.748098876953126 0.2715000000000001 Q 5.754098876953125 0.1935 5.793098876953126 0.1342500000000001 Q 5.8320988769531255 0.07499999999999996 5.900348876953125 0.04200000000000004 Q 5.968598876953125 0.009000000000000119 6.063098876953125 0.009000000000000119 M 6.361598876953126 0.02400000000000002 L 6.358598876953126 0.055500000000000105 L 6.181598876953125 0.055500000000000105 L 6.181598876953125 0.02400000000000002 L 6.361598876953126 0.02400000000000002" fill="#272e3a" fill-rule="nonzero"></path></g><g></g><g clip-path="url(#SvgjsClipPath1003)"><g clip-path="url(#SvgjsClipPath100191f700a6-9d81-4e8a-b296-9b8ccc5684bf)"><path d=" M 5.891753373806222 -0.45188776632840355 C 5.87492260646622 -0.44683853612640334 5.859341648582161 -0.44000386384448653 5.8417609955685945 -0.43736617074509265 C 5.781889171155435 -0.4283865873778385 5.718874968681627 -0.4328430508093071 5.658455608697293 -0.4328430508093071 C 5.552121820185859 -0.4328430508093071 5.4457904122638645 -0.4328430508093071 5.33945662375243 -0.4328430508093071 C 5.290402197754117 -0.4328430508093071 5.240774049700794 -0.43077193799660574 5.191860078479435 -0.43403334552925 C 5.165537901042604 -0.435787839946447 5.136558985790859 -0.4391873216666067 5.112586450131196 -0.45117358949643727 C 5.075599232003672 -0.46966838885492024 5.049150883326527 -0.49586439505143654 5.029503878679138 -0.5323516893965854 C 5.020838533117949 -0.5484420934207819 5.018024676400004 -0.5662774695044153 5.010935281048019 -0.5828201855221904 C 5.010935281048019 -0.6644006050376787 5.009030809496109 -0.7462928817697922 5.009030809496109 -0.8280208978305543 C 5.009030809496109 -0.8486582276849353 5.008954630634034 -0.8693288857914738 5.009983045272065 -0.8899162232676172 C 5.0107210279984296 -0.9046734972054775 5.014818022424475 -0.9194736217532551 5.012363634711952 -0.9341951868495157 C 5.0040434746195475 -0.9355806899035306 4.995490016762034 -0.9343761116469471 4.9871293866491495 -0.9339571279055274 C 4.966368266143895 -0.9329191909097361 4.945797592793831 -0.9308528392759148 4.925234061212087 -0.9277675953618219 C 4.882647696721947 -0.921380473894605 4.838647262104516 -0.917535821949186 4.7957299956822315 -0.9146743534424431 C 4.737241293733647 -0.9107749479399079 4.679050165465049 -0.9021500723991975 4.6205186129065465 -0.8982482863072216 C 4.507440614511912 -0.8907089595511004 4.39455068268303 -0.8817388985416055 4.281522676666633 -0.8742043329643634 C 4.195923822176615 -0.8684980600769538 4.110005968701652 -0.8680076586523371 4.024419017158833 -0.8623013857649284 C 3.9938903381817217 -0.8602659817938245 3.9630878914190233 -0.8628774884093802 3.9325282647791933 -0.8613491499889729 C 3.7306019073090955 -0.8512530701744123 3.527899477681594 -0.8542073816693114 3.325477957608 -0.8542073816693114 C 3.203275159890279 -0.8542073816693114 3.081069981583118 -0.8542073816693114 2.9588671838653973 -0.8542073816693114 C 2.898816815244247 -0.8542073816693114 2.837907053835297 -0.8512102195644946 2.7779423864339825 -0.8542073816693114 C 2.6280652364775743 -0.8617014772260765 2.4778738487151015 -0.8626632353597912 2.328010982295333 -0.8701573309165553 C 2.188206106259087 -0.8771467415120635 2.0487868857121034 -0.891499315245142 1.9090272408752151 -0.8984863452512113 C 1.8859569486132695 -0.8996409311295559 1.8630675811487558 -0.9039974098045498 1.8399901471184912 -0.9051519956828948 C 1.7677844888172776 -0.9087633498632033 1.6953169656776763 -0.9177143661571789 1.6233565080887713 -0.9249108880339567 C 1.5948584719038832 -0.9277604535935011 1.5662128391737227 -0.9327668331855845 1.5376552882528376 -0.9341951868495157 C 1.5250286418636765 -0.934826043051086 1.511640206853752 -0.9387611573952195 1.499089739326668 -0.9356235405134483 C 1.5064076712648804 -0.906356573939477 1.5042675213584218 -0.8768444066531975 1.5057553897583513 -0.8470656133496512 C 1.5081240762510393 -0.7996990252642191 1.5059934487023403 -0.7516730139039383 1.5059934487023403 -0.7042302469564294 C 1.5059934487023403 -0.6770105873007601 1.5070885198446886 -0.6494766898390267 1.5052792718703747 -0.6223379702243146 C 1.5044103567248155 -0.609309004219813 1.5057553897583513 -0.5955182495945466 1.5019464466545323 -0.5828201855221904 C 1.495749772342506 -0.5683604852643165 1.493814353127878 -0.552191521788604 1.4874248510712218 -0.5375889861643364 C 1.475817096962332 -0.5110549362673558 1.4575794012633576 -0.4891701775464745 1.435289942337695 -0.47093248184750003 C 1.3855451454018157 -0.43023154419375054 1.3122277518321752 -0.4328430508093071 1.2519845554663938 -0.4328430508093071 C 1.1345429366284465 -0.4328430508093071 1.0170989372010595 -0.4328430508093071 0.8996573183631127 -0.4328430508093071 C 0.8544261190052592 -0.4328430508093071 0.8091949196474055 -0.4328430508093071 0.7639637202895518 -0.4328430508093071 C 0.7160495966329457 -0.4328430508093071 0.6705636742050237 -0.43274306605283197 0.6258895327761038 -0.45188776632840355 C 0.6223710215839509 -0.4571679137060718 0.6144484199280066 -0.45983179328930657 0.6092254066968945 -0.4633145956398623 C 0.5994078558468003 -0.46985883601011036 0.5893403431055183 -0.47724580504208003 0.5801822155302726 -0.4847399005988451 C 0.5563096646270858 -0.5042702563636778 0.5408596391622189 -0.5329420755776764 0.5301898372926449 -0.5613948805632063 C 0.5206389124598184 -0.5868648069805591 0.5235241868609615 -0.61570088686591 0.5235241868609615 -0.6423349215193666 C 0.5235241868609615 -0.6883588571607029 0.5235241868609615 -0.7343851733914777 0.5235241868609615 -0.780409109032814 C 0.5235241868609615 -0.8915040764240221 0.5235241868609615 -1.0025966632257908 0.5235241868609615 -1.1136916306169993 C 0.5235241868609615 -1.1698259296095346 0.5260880816877197 -1.2266672636657172 0.5232861279169725 -1.2827134808489782 C 0.5214864023004182 -1.318719896127269 0.496683040926235 -1.344235053743978 0.4792452232790626 -1.3741281153406404 C 0.46549493867427505 -1.397700711974402 0.4513661403485455 -1.4251774752895785 0.44472667640070046 -1.4517353310809575 C 0.4400131093097241 -1.4705872188554223 0.43926322363615994 -1.4896057478906806 0.43829908491300557 -1.5088694776382465 C 0.4362851062468613 -1.5491323868350562 0.4380610259690169 -1.5899547345502394 0.4380610259690169 -1.6302795390724851 C 0.4380610259690169 -1.7053442852910035 0.4343139781906345 -1.7814779161680296 0.4380610259690169 -1.856435535861753 C 0.44008214640348087 -1.8968555639615947 0.4416319101288476 -1.937327965029115 0.4416319101288476 -1.977845597295992 C 0.4416319101288476 -2.086540930531795 0.4380610259690169 -2.1951624654949597 0.4380610259690169 -2.303986350560516 C 0.4380610259690169 -2.373049630801078 0.43613512911214847 -2.44465776115288 0.450678150000418 -2.5125259854946194 C 0.45802226842246957 -2.5467969510712334 0.46534258095012226 -2.5807536788417815 0.47496016228726595 -2.6144152135217853 C 0.48809625481656266 -2.660391537374323 0.5086288387355884 -2.7048466645747733 0.5299517783486565 -2.74749016321147 C 0.5483703988450623 -2.784329784793722 0.5717977795229907 -2.8216479048533913 0.5977985773854371 -2.853426393286443 C 0.6307340322862739 -2.893679780125493 0.6632957346450488 -2.9353662818073545 0.7039728664043984 -2.9686469221769753 C 0.7378010423451933 -2.996323655005102 0.7721696120888424 -3.0236242547017267 0.8101471554233601 -3.0457780200293154 C 0.8791604432856853 -3.0860361680472446 0.9539895111496545 -3.114281861751505 1.032018091220832 -3.1310031219772716 C 1.0979508963479434 -3.145131920303001 1.1633337853144403 -3.1467150122805254 1.2305592505074103 -3.1467150122805254 C 1.2481041946793778 -3.1467150122805254 1.2654467887489547 -3.14639839388502 1.2829322181849252 -3.1455247175605825 C 1.295277955020179 -3.144908144895651 1.3084854652326723 -3.1468721311835584 1.3205455313351402 -3.143858304952661 C 1.3250853153970055 -3.1370474385651446 1.3272373682506633 -3.128803457334816 1.3324484785345754 -3.122432999993678 C 1.3418732321270883 -3.110913327694065 1.3540523277015502 -3.100829150826703 1.3645864359730504 -3.0902950425552027 C 1.3864092993684953 -3.068472179159759 1.4082297821744998 -3.0466516963537544 1.4300526455699436 -3.0248288329583097 C 1.4655281894031404 -2.9893532891251127 1.4978113627974483 -2.9513876487377946 1.5314657557091318 -2.9143694829475515 C 1.5607089163887038 -2.8822029584357978 1.5922422041094477 -2.846622668667246 1.608120735673494 -2.8053384866007245 C 1.6261894095222367 -2.7583599345939938 1.6371924939133942 -2.7107291010807346 1.6509713455914605 -2.6625031202075027 C 1.660338965037416 -2.629712881262499 1.6696065997268967 -2.5965346062387926 1.6778720062621844 -2.5634705995082028 C 1.6979879870292292 -2.483009057029461 1.72579327168711 -2.404199643622 1.7485755126268288 -2.3244594197435444 C 1.7545936427308633 -2.3033983449688633 1.7635065695938008 -2.2831490511931842 1.7695246996978349 -2.2620879764185045 C 1.7946042094470447 -2.174313263180429 1.8277729621129908 -2.0853577775801693 1.8859355233083106 -2.014268615726264 C 1.8997334197018962 -1.9974045201341037 1.9151001245363666 -1.97915254089849 1.9321189584421194 -1.9652284732645904 C 1.961778722273672 -1.9409607445143817 1.99237167716566 -1.9210066438292488 2.0249619465977133 -1.9009525583876403 C 2.0410594923902297 -1.8910469257282712 2.0593328969308025 -1.8807675405268385 2.0773349142752284 -1.8747660745488828 C 2.097972244129609 -1.8678861710676093 2.118035851928977 -1.8590898930872268 2.138992180768302 -1.8531027106459113 C 2.163890765720081 -1.8459895093995295 2.1893678339057523 -1.8413902106016664 2.2146949249567105 -1.8359624666787249 C 2.22986404086767 -1.8327129620932792 2.245956825481307 -1.8325034702225693 2.261354477978496 -1.8309632288549622 C 2.2899310736148997 -1.828106521527097 2.318402923315949 -1.825016516434125 2.3470556978144295 -1.8235834015913115 C 2.4089843515036504 -1.8204862547300187 2.4708130204363967 -1.815491778085136 2.5327416741256177 -1.8123946312238433 C 2.5691694537347693 -1.8105734803023297 2.60581862816183 -1.8130254874254135 2.6422487883604218 -1.8112043365039 C 2.681133336271537 -1.8092593949315114 2.720010742414331 -1.8071978044765702 2.7588976709148865 -1.8052528629041817 C 2.8294226330715397 -1.8017272099437087 2.9002427883187387 -1.8040173369848813 2.970770131064832 -1.8004916840244083 C 2.9992729284285993 -1.7990657109499155 3.027968553536998 -1.8014415392109226 3.056471350900765 -1.8000155661364308 C 3.077187240206663 -1.7989800097300788 3.0976317423164117 -1.7955781474204815 3.118366676337828 -1.7945402104246901 C 3.1752913310244066 -1.7916930254545855 3.2327325736194408 -1.793111856760759 3.289769116009694 -1.793111856760759 C 3.3316460648467467 -1.793111856760759 3.3741229222226514 -1.791021699232537 3.4159403563237074 -1.793111856760759 C 3.422694088564667 -1.7934499004612219 3.4259959661177897 -1.8001607820922638 3.4326044824029163 -1.8004916840244083 C 3.4879865151324485 -1.8032603095429964 3.5438232404449987 -1.7989109726363224 3.5992457431950093 -1.8016819787443517 C 3.639653868347652 -1.8037030991788163 3.6802476794766044 -1.8020414477497737 3.720655804629247 -1.8040625681842388 C 3.7801467347320235 -1.8070359243946572 3.8397186048757574 -1.8082309802934815 3.8992000126207746 -1.8112043365039 C 3.9479592455285415 -1.813642060090344 3.996906545002059 -1.8136777689319423 4.045606263173828 -1.8171558101036172 C 4.107439693285453 -1.8215718035146078 4.169201705713883 -1.8275542247770442 4.231054180541028 -1.8316774056869285 C 4.340649376585107 -1.8389834346779415 4.453346480669359 -1.8635773041814145 4.540054689838365 -1.9345188694900481 C 4.643236577931388 -2.0189393322073226 4.711242876460642 -2.140280356547805 4.75026073738039 -2.267087214242267 C 4.7662225895748325 -2.3189650193162845 4.785103044422577 -2.369869163309389 4.800015056674029 -2.422063586778912 C 4.821485592832369 -2.497211653627826 4.84043984595275 -2.573071516719267 4.861910382111092 -2.6482195835681805 C 4.875386898930293 -2.695383821551223 4.882357264810281 -2.7451833720442194 4.899999813149284 -2.7910549499614024 C 4.922160720245192 -2.848674736764429 4.97321246078357 -2.8924394930273123 5.011411398935996 -2.9391276131223765 C 5.039885629226487 -2.9739294501440856 5.072461615121901 -3.0052794324779573 5.10092156187575 -3.040064605373587 C 5.109075080707362 -3.0500297527689533 5.119430644770871 -3.058190413368887 5.127584163602484 -3.0681555607642537 C 5.14140110471159 -3.0850410816613723 5.15972926280928 -3.0981843159589886 5.1735295397923045 -3.115053172730028 C 5.180849852319957 -3.1239994278451237 5.186656109963841 -3.135797629109204 5.194716785807298 -3.143858304952661 C 5.20647689764034 -3.1516975859782095 5.230566082182558 -3.147936254663187 5.244233046156949 -3.148619483832435 C 5.295499039744916 -3.1511833786591934 5.346517452031136 -3.1463079314863047 5.397543006085674 -3.1429060691767066 C 5.4313092867010315 -3.140654031566573 5.464554218229054 -3.133307532555082 5.49752776256093 -3.1262419430974973 C 5.560568151518577 -3.112734478615579 5.6226824911841105 -3.0897379846262694 5.678452559992345 -3.0572048493407733 C 5.7020561042888245 -3.0434355200204664 5.72805928274071 -3.0313326033080807 5.749394125300977 -3.0138781215348294 C 5.76514172444583 -3.0009943714861604 5.78221769249814 -2.98961991514238 5.797958149874673 -2.9767409262725915 C 5.811398957852275 -2.9657426030603133 5.822851973647571 -2.952261325062233 5.836285639856855 -2.941270143618275 C 5.858998843702817 -2.922684881861077 5.881102616652167 -2.8986599732337366 5.89960931895785 -2.8760419929653698 C 5.931685381070888 -2.8368360654798703 5.958148013284672 -2.794292551599649 5.983644126185863 -2.750584929483323 C 6.011175643058156 -2.703387363248123 6.030594111119314 -2.650535897093191 6.045539451622925 -2.5982272053305526 C 6.057930419657536 -2.554862388093571 6.068709728641345 -2.5101692019491315 6.071725935461682 -2.464914196696879 C 6.075789601635569 -2.4039520623202524 6.0724234481675685 -2.3425685636127653 6.076487114341456 -2.281608809825577 C 6.078151146359937 -2.256643568369482 6.075237304885515 -2.2313736114650813 6.076487114341456 -2.206382183525147 C 6.078727249004391 -2.161600915571432 6.078991494432217 -2.114450961125029 6.076010996453479 -2.069736349675631 C 6.073873227136461 -2.0376555263837135 6.076665658549448 -2.005203331139174 6.075058760677524 -1.9730844184162177 C 6.071933046742952 -1.9105749009036646 6.0733923480696035 -1.8476702055440897 6.0733923480696035 -1.7850178526651428 C 6.0733923480696035 -1.7143929057520135 6.0733923480696035 -1.643770339428325 6.0733923480696035 -1.5731453925151966 C 6.0733923480696035 -1.535534459954421 6.07663233029729 -1.4962190253546868 6.071963994405671 -1.458877099400619 C 6.067307561461252 -1.4216327776135862 6.052531242807873 -1.380334312010426 6.033636504423489 -1.3479416315018833 C 6.022723882431047 -1.3292349596832507 6.006188308181593 -1.3117304855317604 6.000546311209059 -1.290569426000606 C 5.998041931118299 -1.2811756200708109 5.998879898601139 -1.2709128989954581 5.998879898601139 -1.2612881758899954 C 5.998879898601139 -1.2446240498107857 5.998879898601139 -1.2279599237315768 5.998879898601139 -1.211295797652367 C 5.998879898601139 -1.1573349768184475 5.998879898601139 -1.1033765365739687 5.998879898601139 -1.0494157157400492 C 5.998879898601139 -0.9287983905892925 5.998879898601139 -0.8081834460279764 5.998879898601139 -0.6875661208772197 C 5.998879898601139 -0.6537879373146631 6.002655513452799 -0.6169435545535307 5.995547073385297 -0.583772421298145 C 5.983572708502666 -0.5278976065545562 5.944859563031223 -0.4746485819631632 5.891753373806222 -0.45188776632840355 M 0.6961169212527714 -2.4789596743922124 C 0.6961169212527714 -2.446324173760801 0.6937315706340046 -2.413353010018366 0.7006400411885566 -2.3811174484128563 C 0.7083055391849928 -2.345341950310233 0.7157924929734376 -2.307723875981138 0.7323018807390543 -2.2747051004499053 C 0.7706246095423557 -2.198059642843302 0.8276944801847677 -2.1284274017266065 0.9044184972428868 -2.087114652586807 C 0.9723010051212653 -2.0505630823267804 1.0499367879348616 -2.033046705228093 1.1270036098723246 -2.038550628013111 C 1.2819109453152133 -2.049615607729707 1.4257723457570268 -2.1592631767414625 1.4750457859838089 -2.3070811168323684 C 1.4860131615333685 -2.339985624070488 1.4961473307789679 -2.3737114346653674 1.4978994446067244 -2.408732285915545 C 1.5010537256145748 -2.4718107643042324 1.4927169013960904 -2.5321396618898495 1.4700465481600458 -2.591085437010892 C 1.451711248294036 -2.63875674054463 1.423341763938902 -2.686354245805731 1.387202035651977 -2.7224939740926564 C 1.3391974495966554 -2.7704985601479777 1.2836083055858531 -2.812082696483925 1.2172279496440432 -2.831048852551505 C 1.169711384423898 -2.844625354127181 1.1217472683890537 -2.851486212892935 1.0722500527549226 -2.8479510375747026 C 1.0018298365336245 -2.8429208520882217 0.9288909566849254 -2.819407770190457 0.8720424808604231 -2.77677141332208 C 0.8486198613613747 -2.759202663255714 0.8227190482554039 -2.7416172490632684 0.8039576228796539 -2.718685030988837 C 0.7762642259254482 -2.684837810332523 0.7519845942280401 -2.651161992115881 0.7323018807390543 -2.611796565137909 C 0.7120025945851374 -2.571200373419516 0.7011042561293347 -2.5238409271024036 0.6961169212527714 -2.4789596743922124 M 0.9294146863617005 -1.5933804027542364 C 0.9294146863617005 -1.5783041298314315 0.928357704650391 -1.5628374402404854 0.931557216857599 -1.5479111444523936 C 0.9415961625256023 -1.5010587636859771 0.9750505859243348 -1.458198631410251 1.0179726135254983 -1.4367376176096687 C 1.061404087266797 -1.4150218807390194 1.1143507769993248 -1.4172334483286746 1.1567609778709125 -1.4400704428255104 C 1.1712778122753438 -1.4478859179566599 1.187056359082915 -1.4572868656547735 1.1977071162369692 -1.4703039287120765 C 1.2219296137878197 -1.4999089389865112 1.2374224898626047 -1.5318612104486755 1.2393674314349923 -1.5707648030753094 C 1.240450599630141 -1.5924495922832396 1.2374272510414843 -1.6161364572101165 1.2296070147314555 -1.6364690716161912 C 1.2221557697846095 -1.6558399278885525 1.2114026472846393 -1.672289800918171 1.1967548804610142 -1.686937567741797 C 1.1765317731691745 -1.7071606750336374 1.154597022070055 -1.7232653625944723 1.1267655509283356 -1.7312165313236956 C 1.033398833095966 -1.7578934165870699 0.9398178622140071 -1.6869994630672331 0.9294146863617005 -1.5933804027542364 M 5.110681978579287 -1.1734444255581633 C 5.115490769247859 -1.1950839835667364 5.111698490270119 -1.2194088464635024 5.107111094419456 -1.2408151067069668 C 5.099245626910069 -1.2775166541017047 5.088973383476956 -1.3149419006861685 5.072116429653116 -1.3486558083338482 C 5.046682212077364 -1.3995242434853559 5.015708362874993 -1.4512925414451385 4.970941378457917 -1.48792029056724 C 4.889177653555557 -1.5548172344175062 4.792516199938384 -1.5855673082125268 4.6905079424392255 -1.6074258804495698 C 4.626827174922248 -1.6210714191190028 4.561729956688536 -1.627982270262994 4.496727962032421 -1.6312317748484397 C 4.4421600908913295 -1.6339599303465504 4.38714943011442 -1.632422069568384 4.332467290680215 -1.632422069568384 C 4.241212155681025 -1.632422069568384 4.149954640092396 -1.632422069568384 4.058699505093207 -1.632422069568384 C 3.78255113006631 -1.632422069568384 3.5064027550394146 -1.632422069568384 3.2302543800125183 -1.632422069568384 C 2.95648659442551 -1.632422069568384 2.682718808838501 -1.632422069568384 2.4089510232514924 -1.632422069568384 C 2.318488624535785 -1.632422069568384 2.2280262258200776 -1.632422069568384 2.13756382710437 -1.632422069568384 C 2.092525455491147 -1.632422069568384 2.0468443247291557 -1.634671726589076 2.0018702290308097 -1.632422069568384 C 1.9879533031652297 -1.631726937451937 1.9738697360388582 -1.6326339420285332 1.9599718548887977 -1.6317078927364168 C 1.8411613971229155 -1.6237876716699136 1.721260629393565 -1.5961418865045047 1.6162147397691098 -1.5395790814127897 C 1.5863978570345247 -1.523524386230191 1.559478151648282 -1.5035679049556188 1.5333702272610412 -1.4822068759115123 C 1.5240645031405227 -1.474593750882752 1.513908908589965 -1.4663569114207435 1.5062315076463288 -1.4569726278487085 C 1.4944690152238467 -1.4425962482212316 1.4822827778810654 -1.4284960169687801 1.4705226660480235 -1.4141220179307417 C 1.457000918029465 -1.3975959660390465 1.4479284916740554 -1.3774990299875198 1.4379085907215707 -1.3588923429253632 C 1.4154667740717564 -1.3172153636012611 1.4060467816581226 -1.2722579320289946 1.3962482755235475 -1.2265315700676442 C 1.393193979272173 -1.212281361680481 1.3869854020129475 -1.1899014403561021 1.3929154503077064 -1.1760630739420392 C 1.3953936439146282 -1.1763725505692237 1.3978742181109909 -1.176648698944251 1.4002952775713555 -1.1772533686619822 C 1.4840872646765 -1.3727664181810253 1.7041441913207773 -1.4480263727336138 1.8995048831156671 -1.4724464592079745 C 1.9459573248561823 -1.4782527168518595 1.9932763011528174 -1.4789216624844674 2.0399596600690018 -1.4812546401355564 C 2.08658112365975 -1.4835852371972065 2.133707272211754 -1.4819688169675227 2.1804144370223364 -1.4819688169675227 C 2.237584292421224 -1.4819688169675227 2.294663685421395 -1.4812546401355564 2.351816876694204 -1.4812546401355564 C 2.430833401382934 -1.4812546401355564 2.510890243656895 -1.4859182148482954 2.5898758206829067 -1.4819688169675227 C 2.599067276510311 -1.4815093632056247 2.608375381220269 -1.482071182313438 2.617252599241608 -1.479112109639659 C 2.6200855006750734 -1.4781670156320237 2.6218185697873104 -1.4757554785294178 2.6243943675612686 -1.4743509307598845 C 2.6298721038624486 -1.471363291012826 2.6385993447490748 -1.470953829629165 2.6446293778003085 -1.4712561644880302 C 2.654565958122397 -1.4717537076809681 2.6587034225689203 -1.4812451177777977 2.668435272199179 -1.4817307580235344 C 2.7560695306603002 -1.486113423182366 2.8449083673780056 -1.4822068759115123 2.9326807000266397 -1.4822068759115123 C 3.1024952865421014 -1.4822068759115123 3.2723122536470024 -1.4822068759115123 3.4421268401624645 -1.4822068759115123 C 3.5484606286738987 -1.4822068759115123 3.654792036595893 -1.4822068759115123 3.761125825107327 -1.4822068759115123 C 3.8148890570177354 -1.4822068759115123 3.869325995739633 -1.4846517412662759 3.923005907019646 -1.4819688169675227 C 3.9735029702185285 -1.4794430115718034 4.024795150290336 -1.4819688169675227 4.075363631172415 -1.4819688169675227 C 4.177728977087558 -1.4819688169675227 4.2800943230027 -1.4819688169675227 4.382459668917843 -1.4819688169675227 C 4.417623355534414 -1.4819688169675227 4.4535631143083885 -1.484068496853503 4.488633957936805 -1.4817307580235344 C 4.643972180068313 -1.4713751939600255 4.797743974348376 -1.4468313168347908 4.933804183195679 -1.367462464908956 C 4.9843750446672 -1.3379622005698764 5.027258982837326 -1.297413620640281 5.064022425557502 -1.252479994962413 C 5.074737458626433 -1.239384372453594 5.085728640070391 -1.222867842919658 5.092827557780134 -1.2074868545485482 C 5.098074376905644 -1.196119539973087 5.101628596939396 -1.182497807198053 5.110681978579287 -1.1734444255581633 M 5.016886754647738 -2.4813402638320996 C 5.016886754647738 -2.443745995397404 5.015853578830826 -2.4062588534875027 5.02379046402341 -2.3692145012134205 C 5.038457275562554 -2.3007654130483486 5.065762636438058 -2.2385629915735406 5.110205860691309 -2.184242701734198 C 5.133185690554539 -2.1561565075224105 5.16118380295705 -2.133443303676448 5.18900337115157 -2.1106824880416886 C 5.224766966306992 -2.081422663236037 5.272823925329993 -2.062723133185724 5.3166029651295155 -2.0502155162685582 C 5.3581680567499435 -2.0383387555529615 5.401266247969657 -2.0352130416183902 5.44420255910746 -2.037360333293168 C 5.5554498842228215 -2.0429237708141836 5.660388647322481 -2.0989747491763238 5.730349409781882 -2.1844807606781873 C 5.752062766063091 -2.211019571754047 5.77001955220816 -2.241683944329232 5.785341025843272 -2.272324511010018 C 5.809144539652702 -2.319929158039439 5.820076206360664 -2.374951721763548 5.822716280049498 -2.427777001434642 C 5.83174347520555 -2.6083161433767943 5.700994361398635 -2.784139337638531 5.528475425279462 -2.833429441991392 C 5.48044703332974 -2.847151159522901 5.430923631211771 -2.8515076381978943 5.381116938950454 -2.8479510375747026 C 5.256026486242151 -2.8390166854068073 5.1381873089677415 -2.758262330426959 5.073544783317049 -2.6532188213919436 C 5.041602034212645 -2.601312449244647 5.023585733331579 -2.541635833165559 5.016886754647738 -2.4813402638320996 M 5.283274712971097 -1.6007602300178854 C 5.280163282573164 -1.582094028219732 5.282041567641236 -1.5604616119794783 5.2866075381869395 -1.5421977297966651 C 5.300681582955551 -1.4859039313116562 5.3470554652445506 -1.436468611002962 5.404684774405335 -1.4241204935782679 C 5.48635565631954 -1.4066184000162174 5.5732495514648575 -1.4610315328437173 5.590846868604501 -1.5431499655726197 C 5.606542094781678 -1.6163959414590638 5.569883397996856 -1.6969050957266032 5.498003880448906 -1.7245508808920111 C 5.477190386975974 -1.732556803178352 5.456860153159339 -1.7350254744275144 5.434680201347912 -1.7350254744275144 C 5.413376306450363 -1.7350254744275144 5.3913082423426095 -1.7310760765467417 5.372070699078883 -1.721456114620159 C 5.336559446404087 -1.703701678577481 5.307166308589803 -1.6738324228752188 5.292797070730645 -1.6364690716161912 C 5.2882858537420585 -1.6247399074458673 5.286295680970313 -1.6128441020147521 5.283274712971097 -1.6007602300178854" fill="#282f3b" transform="matrix(1,0,0,1,0,0)" fill-rule="evenodd"></path></g><g clip-path="url(#SvgjsClipPath100191f700a6-9d81-4e8a-b296-9b8ccc5684bf)"><path d=" M 0.6258895327761038 -0.45188776632840355 C 0.6705636742050237 -0.43274306605283197 0.7160495966329457 -0.4328430508093071 0.7639637202895518 -0.4328430508093071 C 0.8091949196474055 -0.4328430508093071 0.8544261190052592 -0.4328430508093071 0.8996573183631127 -0.4328430508093071 C 1.0170989372010595 -0.4328430508093071 1.1345429366284465 -0.4328430508093071 1.2519845554663938 -0.4328430508093071 C 1.3122277518321752 -0.4328430508093071 1.3855451454018157 -0.43023154419375054 1.435289942337695 -0.47093248184750003 C 1.4575794012633576 -0.4891701775464745 1.475817096962332 -0.5110549362673558 1.4874248510712218 -0.5375889861643364 C 1.493814353127878 -0.552191521788604 1.495749772342506 -0.5683604852643165 1.5019464466545323 -0.5828201855221904 C 1.5114735655929599 -0.5828201855221904 1.5211101916456229 -0.5861720554535506 1.5305135199331767 -0.5875813644019647 C 1.5446137511856275 -0.5896953278245838 1.5591567720738975 -0.5892525381887657 1.5733641298511434 -0.5899619538418519 C 1.6665213558128027 -0.5946207673757096 1.759764282994298 -0.5970870580354335 1.8528453300938814 -0.603293254705219 C 1.8889136406976093 -0.6056976500395055 1.9252890473390833 -0.6048215931256262 1.9614002085527296 -0.6066260799210608 C 2.0978389311209753 -0.6134488492557773 2.234420489055614 -0.6174196724415086 2.3708615922132994 -0.6242424417762251 C 2.402566282373715 -0.6258279143431884 2.4343638155222864 -0.6233711460412259 2.466085169808781 -0.6249566186081905 C 2.5484940344493503 -0.629077418928635 2.631257606916463 -0.6260731150554975 2.7136664715570324 -0.6301939153759424 C 2.7221818399835085 -0.6306200408856828 2.7313899599369913 -0.6312247106034139 2.7398529553957895 -0.6299558564319541 C 2.754060313173036 -0.6278252288832551 2.7732788117212435 -0.6173006429695134 2.787940862081508 -0.6251946775521797 C 2.790752338210014 -0.6267087324359477 2.792823451022717 -0.6300772664933878 2.795082630401169 -0.6323364458718412 C 2.8150367310863027 -0.6348313036048423 2.8363858571832092 -0.6328125637598179 2.8565018379502543 -0.6328125637598179 C 2.896179122144852 -0.6328125637598179 2.935854025750009 -0.6328125637598179 2.975531309944606 -0.6328125637598179 C 3.096148635095363 -0.6328125637598179 3.216763579656679 -0.6328125637598179 3.3373809048074357 -0.6328125637598179 C 3.4183209457635946 -0.6328125637598179 3.4992609867197535 -0.6328125637598179 3.5802010276759124 -0.6328125637598179 C 3.646355227620934 -0.6328125637598179 3.7127998594776197 -0.6334005693514695 3.7787421869624915 -0.6290036206559995 C 3.808009153536462 -0.6270515373152912 3.8375213208227414 -0.628577495146259 3.866823996238312 -0.6266230312161123 C 3.9123503886867104 -0.6235877796802556 3.9583743243280467 -0.6284251374221062 4.003945947975804 -0.6261469133281334 C 4.046763229641613 -0.6240067634216753 4.089668593116697 -0.626384972272124 4.132497777729704 -0.6242424417762251 C 4.192364840963983 -0.621250040850287 4.252172389462267 -0.6187075713284869 4.311994221497187 -0.6147200840166764 C 4.341680171812577 -0.6127418141921304 4.37177796410107 -0.6152533360512105 4.401504384436939 -0.6137678482407218 C 4.535581562280816 -0.6070641083780006 4.66974920252341 -0.6021410494163133 4.803823999777848 -0.5954373095535921 C 4.828744010034585 -0.5941922612765307 4.853680684417403 -0.5925734604574076 4.878574508190301 -0.5909141896178065 C 4.906339322827704 -0.5890620910335742 4.934356479945733 -0.5907546901253342 4.962133197530335 -0.5887716591219077 C 4.978214079196773 -0.5876218344224418 4.994975809443017 -0.5828201855221904 5.010935281048019 -0.5828201855221904 C 5.018024676400004 -0.5662774695044153 5.020838533117949 -0.5484420934207819 5.029503878679138 -0.5323516893965854 C 5.049150883326527 -0.49586439505143654 5.075599232003672 -0.46966838885492024 5.112586450131196 -0.45117358949643727 C 5.136558985790859 -0.4391873216666067 5.165537901042604 -0.435787839946447 5.191860078479435 -0.43403334552925 C 5.240774049700794 -0.43077193799660574 5.290402197754117 -0.4328430508093071 5.33945662375243 -0.4328430508093071 C 5.4457904122638645 -0.4328430508093071 5.552121820185859 -0.4328430508093071 5.658455608697293 -0.4328430508093071 C 5.718874968681627 -0.4328430508093071 5.781889171155435 -0.4283865873778385 5.8417609955685945 -0.43736617074509265 C 5.859341648582161 -0.44000386384448653 5.87492260646622 -0.44683853612640334 5.891753373806222 -0.45188776632840355 C 5.893160302165196 -0.44977856408466277 5.893729263041329 -0.44757413826332826 5.894610081134086 -0.44522211589672 C 5.90633448412553 -0.443755672801748 5.911367050201451 -0.4511093135815605 5.921748800748799 -0.4528400021043586 C 5.926043384098355 -0.45355655952576424 5.931483030968497 -0.45162352090057567 5.935556219500144 -0.45045941266447187 C 5.952996417736756 -0.4454768389667869 5.9746812069446875 -0.4392230305082041 5.9888814229536145 -0.4276057540415561 C 5.993121252746052 -0.42413723522763913 5.999513135392149 -0.41975457006880745 6.000308252265071 -0.4137983352902115 C 6.003219713150052 -0.3919588077686873 5.967099029578647 -0.38105808872344404 5.951268109803398 -0.37547084530802977 C 5.88778969238881 -0.3530671180892524 5.819204910625666 -0.3483440286405166 5.753679186292775 -0.33523888377393884 C 5.7137567013858686 -0.33523888377393884 5.673536642798978 -0.3245643207254858 5.6336974785224685 -0.32190758291057175 C 5.558189942668131 -0.31687263624520945 5.483025211693138 -0.30789543346739645 5.407541481733199 -0.3028628673914753 C 5.285479138792432 -0.294726012685941 5.1630120956468835 -0.2919573871673533 5.040930707990596 -0.2838181518723788 C 4.9921690944933905 -0.28056626669749374 4.942945646644847 -0.28297066203177845 4.894286398493555 -0.2781047372166494 C 4.807494868694153 -0.2781047372166494 4.720360534015409 -0.27530278344590187 4.633849913769914 -0.26953461523305666 C 4.555876087255854 -0.26433540789634336 4.477183322730948 -0.268915661978685 4.3991237949970525 -0.2650114952972711 C 4.3587489980965675 -0.2629927554522471 4.318176612272573 -0.2616786700814293 4.277713733562813 -0.2616786700814293 C 4.2634159133868526 -0.2616786700814293 4.24912523497921 -0.26144061113744055 4.234863123644847 -0.2607264343054734 C 4.229159231346877 -0.26044076357268864 4.223595793825861 -0.26137157404368416 4.218198997565637 -0.2590600216975538 C 4.204301116415577 -0.26184055016334273 4.189458141257882 -0.2604883753614855 4.175348387647672 -0.2604883753614855 C 4.1479311390684925 -0.2604883753614855 4.120759091201621 -0.2594528189551344 4.0934561109155565 -0.25763166803362125 C 4.048779588897197 -0.2546535506443224 4.003457927140628 -0.2582030094991943 3.958714748617951 -0.2559652554257008 C 3.9373156301428067 -0.2548963707671925 3.9158379522161457 -0.25536772747628866 3.8944388337410016 -0.2542988428177795 C 3.8851473931571228 -0.2538346278770014 3.8746323296011407 -0.25567244292459446 3.865871760462356 -0.25191825337789275 C 3.8556042782081232 -0.25191825337789275 3.845174915871979 -0.253310898200227 3.8349240977438255 -0.25382272492980285 C 3.7891620269408772 -0.2561104713815334 3.742678637537643 -0.25382272492980285 3.696849910230377 -0.25382272492980285 C 3.6032141857913005 -0.25382272492980285 3.509576080762784 -0.25382272492980285 3.4159403563237074 -0.25382272492980285 C 3.4007069644978705 -0.25382272492980285 3.385863989340174 -0.25592240481578177 3.370709156965853 -0.2566794322576671 C 3.335614507443039 -0.2584339266748641 3.2986772816937515 -0.2584339266748641 3.263582632170937 -0.2566794322576671 C 3.2536603353854883 -0.2561842696541694 3.2448688185839845 -0.2524110353919493 3.2350155588922926 -0.25191825337789275 C 3.21358787334387 -0.2508469881299433 3.192231605478643 -0.2504898997139611 3.1707396440153435 -0.2504898997139611 C 3.106566094484308 -0.2504898997139611 3.0419568970857744 -0.2487163605812448 2.9779118993844933 -0.25191825337789275 C 2.9564794526571903 -0.2529895186258413 2.935135087739163 -0.2535846659858132 2.913635984507543 -0.2535846659858132 C 2.904711154697407 -0.2535846659858132 2.8934295413417828 -0.2555010404849227 2.8850689112288985 -0.25191825337789275 C 2.874220565151334 -0.25656754455399167 2.8585800925312763 -0.25382272492980285 2.846979480190707 -0.25382272492980285 C 2.8192051431955445 -0.25382272492980285 2.791433186789822 -0.25382272492980285 2.76365884979466 -0.25382272492980285 C 2.727940485838596 -0.25382272492980285 2.6921721295042924 -0.2548963707671925 2.656532324999744 -0.2566794322576671 C 2.6018739914599376 -0.25941234893465737 2.5469276065979045 -0.25632710502056355 2.4922716536475384 -0.2590600216975538 C 2.45029710064345 -0.26115970158353363 2.4080773469270538 -0.2583886954755057 2.366100413333526 -0.2604883753614855 C 2.2868482102902465 -0.2644520567788975 2.2072936723881016 -0.2622381085998029 2.128041469344822 -0.2662017900172149 C 2.1027119977044237 -0.2674682635992349 2.077192078908835 -0.26493531643519486 2.051862607268437 -0.2662017900172149 C 1.976224138994907 -0.26998454663719507 1.9003238058829883 -0.26973458474600687 1.8247543747032138 -0.27477191200080764 C 1.7965848598610308 -0.2766501970688795 1.7681987113798179 -0.2743148388283494 1.7400053906432358 -0.2757241477767627 C 1.730623487660641 -0.27619312389642037 1.720715474411831 -0.2762359745063385 1.7114383173645915 -0.2776286193286728 C 1.7047631445751479 -0.27863084748286493 1.69924255766405 -0.28204699332910277 1.692393601845495 -0.2823897982084471 C 1.6276820391010458 -0.28562501925725314 1.561989673507363 -0.28286591609642375 1.4971852677747581 -0.28286591609642375 C 1.4901553871587718 -0.28587974232732094 1.48091870013201 -0.28558454923677434 1.473379373375888 -0.28596068236827765 C 1.4535395409838694 -0.2869533881647106 1.4337044697707308 -0.2880627428436977 1.413864637378712 -0.2890554486401298 C 1.362296308931879 -0.29163362700352824 1.3106946522328877 -0.29361903859639416 1.259126323786055 -0.29619721695979084 C 1.1757128504018532 -0.3003680096584729 1.0925636224454789 -0.30869055034031856 1.0091644325979163 -0.3128613430390006 C 0.9952713126267355 -0.3135564751554476 0.9816138710101039 -0.31669885321609925 0.9677421763438818 -0.31762252191877405 C 0.9418723109006294 -0.3193460686732532 0.9159119830586613 -0.32082679530486224 0.8901349606035647 -0.3240501134064697 C 0.867933583487178 -0.32682588069337726 0.8459297952943022 -0.3304777048941645 0.8234784562867277 -0.3304777048941645 C 0.8063382123195408 -0.3378242039056554 0.782377579607078 -0.3370005199594539 0.7639637202895518 -0.3397620037097244 C 0.7218677572240295 -0.3460753269043053 0.6791004679364587 -0.3518125474544327 0.637792479975539 -0.3621395444446627 C 0.622728109999934 -0.3659056369385638 0.6071376297581139 -0.3683385993461279 0.5925612806176852 -0.37380443270010844 C 0.5764066006786122 -0.37986303282462064 0.5544789913478125 -0.3837957665793148 0.5418547255480917 -0.39642003237903545 C 0.5357104242037433 -0.40256433372338396 0.5287210136082348 -0.4084848596603825 0.5337607214524756 -0.41784533733801865 C 0.5450018647876225 -0.43872072613638835 0.5766518013909204 -0.44458411792682995 0.5973224594974595 -0.4466504695606517 C 0.6072209503885097 -0.4476407947676444 0.6174574849800238 -0.4462671946608303 0.6258895327761038 -0.45188776632840355" fill="#afbbc7" transform="matrix(1,0,0,1,0,0)" fill-rule="evenodd"></path></g><g clip-path="url(#SvgjsClipPath100191f700a6-9d81-4e8a-b296-9b8ccc5684bf)"><path d=" M 0.9655996458479836 -3.587838235491593 C 1.0202508376194706 -3.583634114540753 1.07083836321707 -3.5744283751767094 1.1220043720485622 -3.5547480422771636 C 1.1869468519686799 -3.529770897873868 1.2496039660265066 -3.4753125338470126 1.2496039660265066 -3.401438082348438 C 1.2496039660265066 -3.388152012684429 1.2487207673443081 -3.3744802875311573 1.2438905513707779 -3.361920297646314 C 1.2367535442299964 -3.3433636029623943 1.2269431351482223 -3.3258662705792243 1.2143712423161785 -3.3104995657447533 C 1.2007233230573062 -3.2938187755394646 1.1814548321308607 -3.279870902011167 1.1629505104146183 -3.2690773094907195 C 1.097215294211018 -3.2307307747930185 1.0226028599860784 -3.2167043418132044 0.9472691071608534 -3.2167043418132044 C 0.8860308244091991 -3.2167043418132044 0.8260042616824478 -3.2255529927612647 0.7694390760012918 -3.249794535027634 C 0.7005757652736799 -3.2793067023139133 0.6258633462922651 -3.3437230719678173 0.6468387198471096 -3.4276245661871956 C 0.6498096954680886 -3.4395060880816724 0.653956682272372 -3.4517327954449315 0.6601700207104771 -3.462381172009546 C 0.7010994949504549 -3.532546665160777 0.7824489972902746 -3.5628920387510163 0.8577589442211009 -3.5790300545640106 C 0.882771797465994 -3.584388761393197 0.9097938681981517 -3.5883143533795705 0.9353661599614181 -3.5883143533795705 C 0.9473690919173288 -3.5883143533795705 0.9567652784365629 -3.5745878746691817 0.9655996458479836 -3.587838235491593" fill="#272e3a" transform="matrix(1,0,0,1,0,0)" fill-rule="evenodd"></path></g><g clip-path="url(#SvgjsClipPath100191f700a6-9d81-4e8a-b296-9b8ccc5684bf)"><path d=" M 5.175910129232192 -3.138859067128899 C 5.164688030612563 -3.136052352179272 5.1530826570931145 -3.135473868945379 5.141867700241807 -3.132669534585192 C 5.122537313989925 -3.127836938022221 5.103364046641073 -3.1198976722401977 5.084733553684519 -3.1129106422341297 C 5.053121706512258 -3.101055306823492 5.021540807002717 -3.0911949053634804 4.991176388696958 -3.0760115059158806 C 4.896590809071366 -3.028718716103085 4.812972604995333 -2.9624264419705506 4.765020391907688 -2.8665196352058215 C 4.751493882710251 -2.8394642362215055 4.742530963469077 -2.808152343318671 4.736215259685055 -2.7786758848739908 C 4.727049990341491 -2.73590621499698 4.716803933392217 -2.6926485242847926 4.704791479078548 -2.6506001730080673 C 4.682842444442788 -2.5737785517829135 4.662464598837356 -2.4965046185641793 4.640515564201597 -2.419682997339025 C 4.625903506219571 -2.3685431749913723 4.605649451265013 -2.319369719521066 4.588856773356048 -2.2689916857941763 C 4.578006046689043 -2.2364418863826008 4.562515551203699 -2.2040087358535807 4.5452919866061166 -2.174482285030661 C 4.5050838309664245 -2.1055546983881728 4.453813076199577 -2.0417668043463992 4.376746254262114 -2.0121260852303653 C 4.310082608176959 -1.9864871369627823 4.234237028622157 -1.982337769569059 4.1634454404482355 -1.9787978330719467 C 4.115012348293734 -1.9763767736115812 4.066667337948509 -1.9719345937167518 4.0182294846151265 -1.9695135342563876 C 3.9548105819365365 -1.966342589122458 3.8912059932816336 -1.9674471826225655 3.8277823294241644 -1.9642762374886367 C 3.7902094862944273 -1.9623979524205653 3.752493807798296 -1.9622574976436122 3.714942389973518 -1.9597531175528506 C 3.676557765844781 -1.957193983904972 3.6376779791125444 -1.9607220174548843 3.5992457431950093 -1.958800881776896 C 3.4638449576225545 -1.952030485409857 3.3279180617838846 -1.9540397028971221 3.1921649489743267 -1.9540397028971221 C 3.079389285438558 -1.9540397028971221 2.96660886072391 -1.9531755489304432 2.854121248510367 -1.958800881776896 C 2.836707236757594 -1.9596721775118944 2.819162292585627 -1.9579295860418968 2.8017482808328524 -1.958800881776896 C 2.7428144086590094 -1.9617480515034758 2.683497261585344 -1.9610672029236693 2.624632426505257 -1.964990414320602 C 2.5679410695837874 -1.9687707903511429 2.5109235719090535 -1.9669139305880305 2.454182222609346 -1.969751593200376 C 2.4200421894519266 -1.9714584758287752 2.385956909851623 -1.9742342431156836 2.351816876694204 -1.975941125744082 C 2.2732955146089697 -1.9798667177304559 2.186915826782668 -1.9866156887925368 2.115424345313421 -2.022362619821879 C 2.085031359934383 -2.0375603028061176 2.0582616316828535 -2.0557146778746973 2.032103714917375 -2.0771161769392807 C 1.9639760063266878 -2.1328552980847966 1.9436791007622107 -2.2184065407860163 1.9142645376429666 -2.2968445822408547 C 1.8931034781118106 -2.353276454913377 1.8765179114841177 -2.4113414119416614 1.8599870984135423 -2.4691992576886763 C 1.8360431298271587 -2.5530007671515795 1.8092495956812296 -2.635966689721082 1.788093297328954 -2.7205895025407463 C 1.7754975986025117 -2.7709770586253955 1.7620067982466716 -2.8206004454998412 1.7433382158590776 -2.869138283589698 C 1.7350085334089127 -2.89079450572435 1.7245672681255684 -2.9150931821372765 1.7097719047566702 -2.9331761395226588 C 1.6853113482618314 -2.96307158170876 1.6611102760159393 -2.9916029461458065 1.6309743942964094 -3.016258710974716 C 1.6018978748776296 -3.040047941247507 1.567810214687887 -3.0555789067533303 1.5345605219809848 -3.0722025628120617 C 1.4982232047705488 -3.0903712214172794 1.4590148966956094 -3.103683477565128 1.4200541699224183 -3.1148151137860394 C 1.4036090580716785 -3.1195143973403767 1.3876257805722774 -3.1261371971621417 1.3710140274607454 -3.130288945145305 C 1.3598514435771152 -3.1330789959688525 1.3484150919078983 -3.133914582862253 1.3372096574143495 -3.136716536633 C 1.3372096574143495 -3.1571681805110696 1.3473390654810693 -3.1785982466489324 1.3529215477176042 -3.1981357441820855 C 1.3613369313876047 -3.2275883967323677 1.3706950284758006 -3.256774423265383 1.3791080315563615 -3.2862175534579054 C 1.3939319619985375 -3.338102500300244 1.4118982705013652 -3.389082823155425 1.4267198203541023 -3.4409558670505627 C 1.4359255597181453 -3.4731723839405544 1.4454074474572152 -3.5057055192260504 1.457191365184656 -3.537131680421999 C 1.4685562991706766 -3.5674365839917614 1.4778120309129577 -3.599786413890386 1.486710674239255 -3.630926904353549 C 1.4997063119915983 -3.67641044619203 1.5173988527088391 -3.7210917293892702 1.5331321683170522 -3.7656682666511543 C 1.5568547420855268 -3.832884209486365 1.5763279637038021 -3.9022902946062716 1.6083587946174829 -3.9663519564336314 C 1.6494858577809715 -4.0486060827606085 1.7082649916412216 -4.126870341186335 1.7797612342893492 -4.185366184903239 C 1.8226261277439548 -4.220437028531654 1.8679858789315624 -4.253284401623215 1.9178354218027973 -4.2782091730588325 C 2.001037022726849 -4.319809973520859 2.0911113853638548 -4.347086767323084 2.181842790686269 -4.366529041278642 C 2.2090886368257765 -4.372366246585245 2.23619640877777 -4.3800150804556015 2.2637350674183834 -4.384145403133806 C 2.287064843929276 -4.3876448696104395 2.310618395847518 -4.393001195850186 2.3337243969510624 -4.39795282188515 C 2.3557567522172165 -4.402673530744447 2.3783080759812663 -4.40512553786753 2.4003809012678987 -4.409855769084586 C 2.4570770193682483 -4.42200391699633 2.5157156984515456 -4.428141076572358 2.573211694603698 -4.435328076091377 C 2.6677449012616115 -4.447145322070976 2.7625518757051126 -4.459955273847008 2.8576921326701985 -4.466751856697885 C 2.94216020717627 -4.47278427033856 3.0266711322922597 -4.474664935996071 3.1112249080181678 -4.47889286284131 C 3.1667069255041747 -4.481666249538779 3.2222198906529 -4.482225688057151 3.2778661688102595 -4.482225688057151 C 3.3031504092512995 -4.482225688057151 3.3287964992872023 -4.483487400460292 3.3540450308866445 -4.482225688057151 C 3.432590198866277 -4.478297715481338 3.511180598045268 -4.475202949209485 3.5897233854354607 -4.471274976633672 C 3.6867633527735757 -4.466423335355182 3.7838223648272105 -4.454510865797987 3.880155297101679 -4.442469844411038 C 4.100854982894726 -4.414883573981627 4.325611193093341 -4.3804459671442215 4.533865157294658 -4.300348654849782 C 4.642631908213658 -4.258514556622647 4.735624873503964 -4.1833117362166155 4.809299355489588 -4.094903786187531 C 4.835950054269124 -4.062922947652089 4.862069881603564 -4.027452164997772 4.8807170386862 -3.9901578508325017 C 4.922348786810944 -3.906894354583013 4.949332768112064 -3.8191648725442957 4.9818920898813985 -3.732340014492736 C 5.004519592507524 -3.6720015945493594 5.025609234355485 -3.6100443737868595 5.043311297430484 -3.5480823918454796 C 5.053302631309689 -3.513113913562979 5.068528881367207 -3.4795904530704895 5.077353726420869 -3.4442886922664044 C 5.09694121633226 -3.3659411132102828 5.132290588925141 -3.2916738644541272 5.1518661758893325 -3.2133715165973626 C 5.155894133221621 -3.197254926089327 5.160664834459156 -3.179826630799915 5.166625830416632 -3.1643313741356898 C 5.169872954412638 -3.155887423392411 5.176940924459663 -3.1481409853550177 5.175910129232192 -3.138859067128899 M 4.980701795161456 -3.2055155714457353 C 4.978578309381075 -3.2331327895378648 4.965173210245071 -3.259745398886362 4.95761007759455 -3.2862175534579054 C 4.9416172777373895 -3.34218997236853 4.9212275291847565 -3.396895917697134 4.905237109917035 -3.452858814249998 C 4.880650382181882 -3.5389123613230344 4.851447691522789 -3.6247064241471234 4.820012007969081 -3.7085341200938653 C 4.79197342554609 -3.7833012926323972 4.771997899555998 -3.864236572409677 4.731454080805282 -3.933737881107179 C 4.694850137577579 -3.9964878381531617 4.64363175577841 -4.046927767205488 4.587904537580094 -4.092523196747644 C 4.538135934749815 -4.133243179116912 4.47737615047558 -4.1548303641578075 4.418168510516149 -4.177034121863634 C 4.394514973841431 -4.185904198116654 4.3700115667366735 -4.191065316022328 4.345798591543582 -4.1979833089346394 C 4.290335618773096 -4.213830892835968 4.233682351282663 -4.22494110375192 4.177728977087558 -4.238929447300697 C 4.149885602998639 -4.245890290822926 4.1210280978083285 -4.248630349268237 4.09297999302758 -4.254641337603951 C 4.01351353693471 -4.271669693867463 3.9321854598998502 -4.280037465748666 3.8515882238230343 -4.290112120258268 C 3.789026333342803 -4.297932356568297 3.726619181176165 -4.306478672657491 3.6635216580719585 -4.309632953665342 C 3.6380755375490064 -4.310904188426242 3.6127889165185256 -4.315265428280115 3.5873427959955735 -4.316536663041014 C 3.533377213982774 -4.319233870876406 3.479430676685495 -4.322409577189215 3.4254627140832556 -4.325106785024607 C 3.375753625988974 -4.32759212039985 3.3252660851478506 -4.325106785024607 3.2754855793703723 -4.325106785024607 C 3.2049701395714782 -4.325106785024607 3.133985723652927 -4.3271969425528285 3.063613119220426 -4.323678431360675 C 3.016001330422686 -4.321297841920789 2.9683895416249446 -4.318917252480901 2.9207777528272043 -4.316536663041014 C 2.9075964290985494 -4.3158772397661656 2.8946555449033236 -4.312953875933984 2.8814980270690684 -4.312013543105229 C 2.6634050867126975 -4.296434965810607 2.4479307947402025 -4.264727895060752 2.2342157583637836 -4.218932496005646 C 2.1832282937402834 -4.2080055904765645 2.1337858316632694 -4.193231652412625 2.0837625057629237 -4.178938593415543 C 2.064889192683499 -4.1735465583342 2.045016032039322 -4.168016449065342 2.0273425360376005 -4.159179701064481 C 1.9794426959176334 -4.135230971299218 1.933385432024139 -4.109575358905555 1.8918869969080285 -4.075621011724446 C 1.8404805485431077 -4.033560757500522 1.7950089096518256 -3.9787881556676012 1.7635732260981176 -3.920406580243812 C 1.7418360639225088 -3.8800365445222074 1.727931041004129 -3.836947875660252 1.7119144352525688 -3.794235339929799 C 1.6874086475583712 -3.7288857792154597 1.6630076057995296 -3.6623411626022975 1.643829577271799 -3.595218062755243 C 1.6335692367858865 -3.5593021098756674 1.6226566147934438 -3.522093496930233 1.6095490893374262 -3.4871393021843717 C 1.5882285303137977 -3.43028368459155 1.5719333955977708 -3.370721336805576 1.555271650108002 -3.3124040372966634 C 1.5488654839252658 -3.2899812653623672 1.5402548919211947 -3.2681798272718816 1.533846345149019 -3.245747532979826 C 1.5299826484880819 -3.2322210237823876 1.523750265334458 -3.2197348321701806 1.5226575747815496 -3.2055155714457353 C 1.6536042775119753 -3.2256601192860597 1.7845819279051198 -3.2485828150027314 1.9161690091948764 -3.2650303074429115 C 1.9828064687961937 -3.273359989893076 2.049710554414779 -3.2817277617742784 2.116138522145387 -3.2916929091696465 C 2.171480084854441 -3.2999940245465322 2.2273025266303517 -3.304531428018957 2.282779782937479 -3.311927919408686 C 2.3202502607213016 -3.3169247766430088 2.3581421028359832 -3.3213740983061575 2.3958577813321136 -3.32406892555211 C 2.4893268645103976 -3.330746478930993 2.5819794055108014 -3.3443848758321058 2.6755770405188404 -3.349065114670924 C 2.7012683617541007 -3.3503506329684623 2.727183458396712 -3.355556982073496 2.7529461973151683 -3.357397177710528 C 2.7712219824451814 -3.3587017407235864 2.7896620282465463 -3.3583208464132044 2.8079378133765593 -3.3595397082064267 C 2.837599957797551 -3.3615179780309727 2.8672525798607844 -3.365195988715598 2.8969718584283344 -3.3666814765260877 C 2.9318403519543588 -3.3684240679960853 2.9668493002573384 -3.3675575334399666 3.0017177937833632 -3.3693001249099632 C 3.0279471282320394 -3.3706118296913408 3.05404791085096 -3.373939893728304 3.080277245299636 -3.3752515985096805 C 3.142610599193638 -3.378367790086493 3.205922375347433 -3.3752515985096805 3.2683438110507113 -3.3752515985096805 C 3.3217356710084975 -3.3752515985096805 3.3760321549534407 -3.3778488215885973 3.4292716571870745 -3.3742993627337254 C 3.4894958088373365 -3.370283308348637 3.5500270565253444 -3.3711688876202746 3.6101964546184893 -3.367157594414065 C 3.657013126543308 -3.364036641658373 3.703846462594205 -3.3607561894102087 3.750651231571824 -3.3576352366545166 C 3.9625284529006493 -3.343511199507667 4.174141428801648 -3.3175532522551388 4.38484025835773 -3.2912167912816686 C 4.511332878246128 -3.275404916221939 4.636904210021288 -3.2522703480451165 4.763353979299769 -3.236463234164267 C 4.83580721890273 -3.227407471934937 4.907953362467946 -3.2111123372189097 4.980701795161456 -3.2055155714457353 M 2.3913346613963276 -3.22860728901264 C 2.3913346613963276 -3.2170471466925488 2.396452928692085 -3.206208322972743 2.3958577813321136 -3.1943268010782666 C 2.395534021168289 -3.1878682619278527 2.38960873405241 -3.1837903122173263 2.391810779284306 -3.1771865571110793 C 2.3951007538902296 -3.1673190138827483 2.403328070994479 -3.159008376148102 2.4070465516995823 -3.149095601720413 C 2.409965154352884 -3.141313454841422 2.408698680770864 -3.1324767068405617 2.4141883200192438 -3.1257658252095197 C 2.422722733161239 -3.115336462873375 2.4344828449942804 -3.107837606137731 2.442993452241877 -3.097436810874864 C 2.4488996946422366 -3.0902164831036867 2.451425500037957 -3.0807822071534146 2.457276988881199 -3.0736309164759934 C 2.4732102740023625 -3.0541576948577176 2.497416107427134 -3.0422952176787605 2.513458899662533 -3.0226863024624113 C 2.515318140015085 -3.0204152201367584 2.513704100374841 -3.017141909656914 2.5153633712144425 -3.0150684162547727 C 2.518558122242771 -3.0110761677640823 2.5274543849796287 -3.009885873044139 2.532027497293652 -3.007926647935112 C 2.539454936346099 -3.0047437998539825 2.54428515231963 -2.9990756163976116 2.551786389644714 -2.9962617596796655 C 2.5578497509481064 -2.993988296764573 2.564922482174011 -2.9947905554058147 2.5705930462198223 -2.99173863974388 C 2.5829268801078764 -2.9850967952065948 2.5951535874711364 -2.9761362565548604 2.608920536202003 -2.972693924224784 C 2.61931180910711 -2.9700967011458665 2.6236849519081824 -2.9747388505536465 2.632726430600873 -2.9779312209925353 C 2.643098658790461 -2.981592567551081 2.654901621233421 -2.9843873795535085 2.6660546827592917 -2.9836446356482638 C 2.672220409408599 -2.983232793675163 2.6792931406345035 -2.982728108713907 2.685099398278388 -2.9805498693764108 C 2.6922697336713277 -2.977859803309338 2.698390229121278 -2.9727677224974203 2.706524703237371 -2.974122277888716 C 2.709745640749539 -2.97466029110213 2.7137021803986316 -2.9800856544356327 2.7172373557168634 -2.981264046208377 C 2.724848100156182 -2.9838017545512963 2.734337129663572 -2.98245434092832 2.7422335448356767 -2.98245434092832 C 2.7544221627678986 -2.98245434092832 2.773871578491776 -2.9791643663223963 2.7848460958096553 -2.985072989312196 C 2.7910356283533613 -2.988405814528038 2.7950802498117295 -2.99425968396072 2.800796045056898 -2.9976901133435976 C 2.812075277823083 -3.004458129121196 2.823818725530045 -3.0104048415420337 2.835076532991271 -3.0169728878066824 C 2.8376808978385073 -3.01849170386933 2.840885171224596 -3.0269356546126094 2.8419802423669442 -3.030066129726061 C 2.842325427835727 -3.0310493131647345 2.843094358224811 -3.036024745094098 2.8445988907508197 -3.036255662269767 C 2.8532166245232102 -3.0375816505877844 2.863574569176159 -3.0355986195843583 2.87197566930952 -3.0383981927656656 C 2.879317407142132 -3.0408454387098693 2.884964165293544 -3.0468135764356665 2.89221067954856 -3.049348904189146 C 2.89600533911574 -3.0506772730966025 2.907127452978892 -3.0534649433307104 2.9079225698518143 -3.0586332030047054 C 2.9089390815426466 -3.0652345775215117 2.896160077429333 -3.06359911257631 2.89578156370839 -3.0681555607642537 C 2.895212602832257 -3.074992613635609 2.8951483269173806 -3.086395637052668 2.8986382710362553 -3.09267563199509 C 2.9025638630226283 -3.099743602042115 2.9085320007484254 -3.1048428246223527 2.912683748731588 -3.111958406458175 C 2.9163689011845335 -3.1182741102421954 2.9192470338173573 -3.1255634751071293 2.926253108538945 -3.1293367093693503 C 2.9441837082001743 -3.138992380137532 2.9670992621485266 -3.1367617678323576 2.9862439624240977 -3.143144128120695 C 2.99061710522517 -3.144601048857906 2.9965590564671283 -3.1457413511996117 3.0005274990634203 -3.147905307000469 C 3.007566902037166 -3.1517451977670072 3.0114329792875427 -3.157177702868829 3.0198102735265047 -3.159570195255916 C 3.0469275678362586 -3.1673190138827483 3.076187392641909 -3.167571356363376 3.102892844978562 -3.1764723802791135 C 3.1114701087304755 -3.179331468196418 3.1193331956504218 -3.184452116081615 3.127889034097376 -3.1876611506465826 C 3.140918000101878 -3.1925461201772305 3.1571036277036697 -3.1886776623374145 3.1707396440153435 -3.1900417400864693 C 3.175169920962973 -3.190484529722289 3.1831472761760344 -3.1888490647770866 3.1859754164306198 -3.193374565302311 C 3.1867276826936237 -3.1945767629694544 3.1834519916243402 -3.211538462728649 3.182642591214778 -3.2119431629334305 C 3.172429862517663 -3.217049527281988 3.159086658707096 -3.2144118341825934 3.1481240443364165 -3.216942400757193 C 3.1370471616726214 -3.219499153815632 3.1306933684575635 -3.2266480639036126 3.118366676337828 -3.2247983459088205 C 3.11200574135445 -3.2238437295434252 3.1076064120695386 -3.2199776522930494 3.101702550258619 -3.2178946365331482 C 3.0965985664995017 -3.2160925303271535 3.0906923240991415 -3.215161719856158 3.085990659955365 -3.2124192808214076 C 3.082588797645766 -3.210433869228542 3.078939354034419 -3.2034754062957527 3.075516066419862 -3.2024208051738823 C 3.058218703549642 -3.197097807186295 3.0377742014398925 -3.203025474891614 3.020048332470494 -3.199802156790007 C 2.984863220548964 -3.19340551296503 2.949406721431286 -3.1956385058596437 2.913635984507543 -3.1938506831902886 C 2.903192338634759 -3.1933293341029536 2.893015318779242 -3.18897285542796 2.8826883217890114 -3.187423091702594 C 2.8737230219583974 -3.1860780586690582 2.8631793913291377 -3.186732720765027 2.854121248510367 -3.187185032758605 C 2.8474555980786835 -3.18751831528019 2.841604109235441 -3.190729730434597 2.835076532991271 -3.191708152694391 C 2.828863194553166 -3.1926413437548264 2.8220047163768514 -3.1914772355187218 2.8162698764161638 -3.194564860022255 C 2.8090186009822684 -3.1984690267036697 2.803267096895501 -3.205082304167676 2.7946065125131914 -3.2055155714457353 C 2.7771805978132185 -3.206386867180734 2.7596594595356496 -3.2053584525427032 2.7422335448356767 -3.2062297482777016 C 2.7327159482550085 -3.206705866165679 2.7232316799264984 -3.209088836195006 2.7136664715570324 -3.2086103377175887 C 2.692350673712284 -3.207543833648519 2.670870615196183 -3.200871041448516 2.6493905566800824 -3.2019446872859048 C 2.61635511702277 -3.2035968163571864 2.58264120937509 -3.2055108102668557 2.549405800204827 -3.2038491588378144 C 2.544561300694657 -3.203606338714946 2.5399667630756753 -3.2017113895207956 2.535122263565505 -3.2014685693979272 C 2.5224122965459483 -3.2008329520174774 2.5101427385727706 -3.2053394078271835 2.4970328325273123 -3.2033730409498373 C 2.486372553015498 -3.201773284846233 2.4733792958525953 -3.192505650156752 2.465132934032826 -3.1857566790946734 C 2.46189295180514 -3.1831070830480783 2.4583553958974678 -3.174924997143187 2.454182222609346 -3.1743298497832146 C 2.4419317093516875 -3.1725801165448986 2.436711076710015 -3.188170596786718 2.431090505042442 -3.1950409779102324 C 2.4299454415218555 -3.1964407645008857 2.4236844912949533 -3.203039758428253 2.424662913554746 -3.20480139461377 C 2.4269149511648798 -3.2088531578404575 2.4347566127798674 -3.2117503351887997 2.436089742866205 -3.2157521060372494 C 2.4365491966281025 -3.217128086733504 2.4309952814648463 -3.223460454643604 2.429900210322498 -3.2247983459088205 C 2.426714981651929 -3.2286906096430354 2.422072832244149 -3.231454473982745 2.418949498899018 -3.2352729394443234 C 2.4176996894430767 -3.236801277864731 2.416095172160593 -3.2421766488199952 2.414664437907221 -3.242890825651962 C 2.413088487698016 -3.2436788007565647 2.4084558606479956 -3.242652766707973 2.406570433811605 -3.242652766707973 C 2.395683998303001 -3.242652766707973 2.392593993210028 -3.2399484171042614 2.3913346613963276 -3.22860728901264 M 3.197640304686066 -3.191232034806413 C 3.197640304686066 -3.1891347355098727 3.2047725506479683 -3.191232034806413 3.197640304686066 -3.191232034806413 M 3.2528699796914453 -3.1978976852380967 C 3.2528699796914453 -3.1950171720158336 3.2512559400512013 -3.186180424014973 3.2533460975794233 -3.184090266486752 C 3.2570360112112478 -3.180400352854927 3.2668535620613417 -3.1799932720607065 3.271676636266553 -3.1786149107750123 C 3.2796992226789725 -3.1763224031444004 3.2872766388661327 -3.173232398051427 3.295482530665423 -3.1714731424553513 C 3.3057738188140555 -3.169268716634015 3.316138905235323 -3.1696519915338373 3.3264301933839544 -3.166711963575577 C 3.3339766619083964 -3.164555149543039 3.339644845364768 -3.159413076352883 3.3464271446790064 -3.1557612521520966 C 3.3509074140048734 -3.1533497150494907 3.356996961792104 -3.153497311594763 3.361900976038272 -3.1521903679922656 C 3.365633740280014 -3.1511952816063933 3.3692974674280003 -3.1484480813927633 3.37308974640574 -3.147905307000469 C 3.399968981771505 -3.144065416233931 3.4278885347225003 -3.144989084936608 3.454982023137855 -3.1429060691767066 C 3.472491258468224 -3.1415586555537307 3.48900540741272 -3.134885863353727 3.5064027550394146 -3.1331456524731696 C 3.513320747951726 -3.1324529009461624 3.518777058947948 -3.1350501240250788 3.5254474705585106 -3.1360023598010343 C 3.539483425896085 -3.1380068161094195 3.5594137206868193 -3.1377473318604707 3.573059259356252 -3.134335947193113 C 3.574285262917793 -3.1340288511553673 3.579010732955969 -3.1315911275689228 3.579248791899958 -3.1300508862013166 C 3.5807390408893274 -3.120371409538736 3.5801843635498334 -3.1089755278899966 3.580677145563889 -3.0991032234827847 C 3.5807961750358843 -3.096710731095698 3.5815722471932876 -3.0933183911438595 3.581153263451868 -3.091009219387169 C 3.580567638449655 -3.0877906624644416 3.5771086419934996 -3.085790967334936 3.5766301435160823 -3.082439097403576 C 3.573559183138628 -3.0609495165297154 3.5733449300890374 -3.0286639625459677 3.5982935074190534 -3.019591536190558 C 3.603483192398008 -3.0177037287647277 3.610453558277997 -3.018163182526626 3.615909869274218 -3.018163182526626 C 3.635580679816004 -3.018163182526626 3.653116101630212 -3.0270642064423634 3.6628074812399922 -3.045063843197349 C 3.6656427632628983 -3.050329707038379 3.6670306469063525 -3.056045502283548 3.670901485335608 -3.0607757335006043 C 3.6763411322057515 -3.067422339216768 3.6838495112991545 -3.071576467789371 3.689232024022739 -3.078154036411779 C 3.693236175460629 -3.083048528300187 3.6948978268896697 -3.089573723954917 3.6989924407262755 -3.0945801035469995 C 3.704843929569518 -3.1017337748138605 3.718970347305807 -3.106825855625779 3.7277975729489086 -3.108149463354356 C 3.750448881469434 -3.1115465644850744 3.767548655416142 -3.0937111884014405 3.7896928983859715 -3.0948181624909887 C 3.8018696133709935 -3.0954275933875994 3.810839674380488 -3.1037715593744037 3.821830855824446 -3.1074352865223895 C 3.8280322913153526 -3.1095016381562117 3.840523244106439 -3.109011236731595 3.84682704494326 -3.1074352865223895 C 3.8509026140643465 -3.1064163942421175 3.8518548498403025 -3.099288909459096 3.853492695374945 -3.0962465161549204 C 3.855209100361103 -3.0930612874843515 3.85968460850809 -3.0905854744668693 3.8627769941905026 -3.0888666888912706 C 3.873282535388725 -3.083029483584668 3.884680797626903 -3.0825176568550914 3.8956291284609446 -3.0788682132437453 C 3.9019210263505655 -3.076770913947205 3.9066369740309814 -3.073735662411349 3.9134835492600977 -3.073392857532005 C 3.9251960493043416 -3.072807232529793 3.937077571198818 -3.075961513537643 3.949192390858403 -3.0743450933079597 C 3.9622570657045024 -3.072602501837962 3.973652947353242 -3.068819745217982 3.987281821896595 -3.0719645038680725 C 3.9910550561588165 -3.0728357996030713 3.994599753834809 -3.0770161146595134 3.9979944743760867 -3.0788682132437453 C 4.00422685752971 -3.082267694963904 4.010302121780303 -3.0847220826764277 4.013944423623331 -3.091485337275146 C 4.020981446007637 -3.1045547733001264 4.009121349418119 -3.120402357201454 3.998470592264064 -3.1269561199294635 C 3.9920882319757265 -3.1308840925052768 3.98171124260726 -3.135714308478807 3.9846631735127196 -3.144572481784627 C 3.990686064795633 -3.16264353622281 4.006914543007343 -3.177060385870766 4.018705602503103 -3.191470093750402 C 4.02364294500143 -3.1975048879805152 4.032893915564831 -3.2015637929755227 4.031322726534505 -3.210990927157475 C 4.0302276553921565 -3.217566115190443 4.018100932785373 -3.2185897686495952 4.013468305735352 -3.2178946365331482 C 3.9909931608333795 -3.214523721886268 3.9672967735487443 -3.2122288336662166 3.944431211978629 -3.2133715165973626 C 3.9323759070550417 -3.2139738057256535 3.9206276981691985 -3.217537548117165 3.9087223703803233 -3.218132695477137 C 3.8956505537659036 -3.218787357573106 3.8834333687604032 -3.2163924845965797 3.8706329393421304 -3.2157521060372494 C 3.8532189275893574 -3.214880810302251 3.83567398341739 -3.216623401772248 3.8182599716646157 -3.2157521060372494 C 3.8045073064703883 -3.215064115689122 3.791349788636133 -3.2116693951478434 3.777789951186536 -3.210990927157475 C 3.765125215366337 -3.2103576903664655 3.752365255968544 -3.2116241639484855 3.739700520148344 -3.210990927157475 C 3.7289116888067753 -3.2104505333546207 3.7184228117346336 -3.2046966486784143 3.707800621653857 -3.2024208051738823 C 3.6902937669129283 -3.198668996216621 3.669480273439996 -3.1987904062780546 3.6516187108725235 -3.1978976852380967 C 3.637049503500415 -3.197169224869491 3.6210614648221346 -3.1988308762985325 3.6063875115146695 -3.199564097846018 C 3.5989148412628644 -3.19993785038808 3.5908898742610043 -3.19846426552479 3.583533852891755 -3.2000402157339956 C 3.5745185606829013 -3.201970873769744 3.5734211089511145 -3.2071796034642164 3.566631667868557 -3.2117051039894413 C 3.5619181007775804 -3.214847482050092 3.55223386293612 -3.21364052320407 3.546872775517494 -3.2133715165973626 C 3.5429709894255197 -3.213176308263292 3.5359506311672924 -3.213307240682486 3.5328272978221604 -3.210752868213487 C 3.527632851664327 -3.2065011354738484 3.525566500030505 -3.2004139682760573 3.518305702238849 -3.1993260389020284 C 3.5005393632489725 -3.1966621593187954 3.4814946477298765 -3.199985462176878 3.4635521451214477 -3.1990879799580405 C 3.4565341674526606 -3.198738033310377 3.450035158281769 -3.1962907873661734 3.443079075938419 -3.1957551547421987 C 3.432078372136702 -3.1949100454910386 3.419963552477117 -3.196707390518153 3.408798588004046 -3.196707390518153 C 3.38996336435566 -3.196707390518153 3.3703258820660316 -3.195264753317582 3.3516644414467573 -3.1981357441820855 C 3.3435918626561003 -3.1993784118697066 3.343613287961059 -3.208134219829611 3.339523435303333 -3.213133457653374 C 3.3353097919947343 -3.21828267261185 3.3274371827170266 -3.2212060364440305 3.3214309555601917 -3.2236080511888767 C 3.3162317482234784 -3.225686305769898 3.309561336612915 -3.2254910974358273 3.304052652649017 -3.2262266995727527 C 3.2914855209958525 -3.227902634538433 3.2694960163396165 -3.233825541064872 3.2597736890671185 -3.221941638580956 C 3.2539031555083566 -3.2147689225985765 3.253848401951239 -3.206708246755119 3.2528699796914453 -3.1978976852380967" fill="#292f3c" transform="matrix(1,0,0,1,0,0)" fill-rule="evenodd"></path></g><g clip-path="url(#SvgjsClipPath100191f700a6-9d81-4e8a-b296-9b8ccc5684bf)"><path d=" M 2.3913346613963276 -3.22860728901264 C 2.392593993210028 -3.2399484171042614 2.395683998303001 -3.242652766707973 2.406570433811605 -3.242652766707973 C 2.4084558606479956 -3.242652766707973 2.413088487698016 -3.2436788007565647 2.414664437907221 -3.242890825651962 C 2.416095172160593 -3.2421766488199952 2.4176996894430767 -3.236801277864731 2.418949498899018 -3.2352729394443234 C 2.422072832244149 -3.231454473982745 2.426714981651929 -3.2286906096430354 2.429900210322498 -3.2247983459088205 C 2.4309952814648463 -3.223460454643604 2.4365491966281025 -3.217128086733504 2.436089742866205 -3.2157521060372494 C 2.4347566127798674 -3.2117503351887997 2.4269149511648798 -3.2088531578404575 2.424662913554746 -3.20480139461377 C 2.4236844912949533 -3.203039758428253 2.4299454415218555 -3.1964407645008857 2.431090505042442 -3.1950409779102324 C 2.436711076710015 -3.188170596786718 2.4419317093516875 -3.1725801165448986 2.454182222609346 -3.1743298497832146 C 2.4583553958974678 -3.174924997143187 2.46189295180514 -3.1831070830480783 2.465132934032826 -3.1857566790946734 C 2.4733792958525953 -3.192505650156752 2.486372553015498 -3.201773284846233 2.4970328325273123 -3.2033730409498373 C 2.5101427385727706 -3.2053394078271835 2.5224122965459483 -3.2008329520174774 2.535122263565505 -3.2014685693979272 C 2.5399667630756753 -3.2017113895207956 2.544561300694657 -3.203606338714946 2.549405800204827 -3.2038491588378144 C 2.58264120937509 -3.2055108102668557 2.61635511702277 -3.2035968163571864 2.6493905566800824 -3.2019446872859048 C 2.670870615196183 -3.200871041448516 2.692350673712284 -3.207543833648519 2.7136664715570324 -3.2086103377175887 C 2.7232316799264984 -3.209088836195006 2.7327159482550085 -3.206705866165679 2.7422335448356767 -3.2062297482777016 C 2.7596594595356496 -3.2053584525427032 2.7771805978132185 -3.206386867180734 2.7946065125131914 -3.2055155714457353 C 2.803267096895501 -3.205082304167676 2.8090186009822684 -3.1984690267036697 2.8162698764161638 -3.194564860022255 C 2.8220047163768514 -3.1914772355187218 2.828863194553166 -3.1926413437548264 2.835076532991271 -3.191708152694391 C 2.841604109235441 -3.190729730434597 2.8474555980786835 -3.18751831528019 2.854121248510367 -3.187185032758605 C 2.8631793913291377 -3.186732720765027 2.8737230219583974 -3.1860780586690582 2.8826883217890114 -3.187423091702594 C 2.893015318779242 -3.18897285542796 2.903192338634759 -3.1933293341029536 2.913635984507543 -3.1938506831902886 C 2.949406721431286 -3.1956385058596437 2.984863220548964 -3.19340551296503 3.020048332470494 -3.199802156790007 C 3.0377742014398925 -3.203025474891614 3.058218703549642 -3.197097807186295 3.075516066419862 -3.2024208051738823 C 3.078939354034419 -3.2034754062957527 3.082588797645766 -3.210433869228542 3.085990659955365 -3.2124192808214076 C 3.0906923240991415 -3.215161719856158 3.0965985664995017 -3.2160925303271535 3.101702550258619 -3.2178946365331482 C 3.1076064120695386 -3.2199776522930494 3.11200574135445 -3.2238437295434252 3.118366676337828 -3.2247983459088205 C 3.1306933684575635 -3.2266480639036126 3.1370471616726214 -3.219499153815632 3.1481240443364165 -3.216942400757193 C 3.159086658707096 -3.2144118341825934 3.172429862517663 -3.217049527281988 3.182642591214778 -3.2119431629334305 C 3.1834519916243402 -3.211538462728649 3.1867276826936237 -3.1945767629694544 3.1859754164306198 -3.193374565302311 C 3.1831472761760344 -3.1888490647770866 3.175169920962973 -3.190484529722289 3.1707396440153435 -3.1900417400864693 C 3.1571036277036697 -3.1886776623374145 3.140918000101878 -3.1925461201772305 3.127889034097376 -3.1876611506465826 C 3.1193331956504218 -3.184452116081615 3.1114701087304755 -3.179331468196418 3.102892844978562 -3.1764723802791135 C 3.076187392641909 -3.167571356363376 3.0469275678362586 -3.1673190138827483 3.0198102735265047 -3.159570195255916 C 3.0114329792875427 -3.157177702868829 3.007566902037166 -3.1517451977670072 3.0005274990634203 -3.147905307000469 C 2.9965590564671283 -3.1457413511996117 2.99061710522517 -3.144601048857906 2.9862439624240977 -3.143144128120695 C 2.9670992621485266 -3.1367617678323576 2.9441837082001743 -3.138992380137532 2.926253108538945 -3.1293367093693503 C 2.9192470338173573 -3.1255634751071293 2.9163689011845335 -3.1182741102421954 2.912683748731588 -3.111958406458175 C 2.9085320007484254 -3.1048428246223527 2.9025638630226283 -3.099743602042115 2.8986382710362553 -3.09267563199509 C 2.8951483269173806 -3.086395637052668 2.895212602832257 -3.074992613635609 2.89578156370839 -3.0681555607642537 C 2.896160077429333 -3.06359911257631 2.9089390815426466 -3.0652345775215117 2.9079225698518143 -3.0586332030047054 C 2.907127452978892 -3.0534649433307104 2.89600533911574 -3.0506772730966025 2.89221067954856 -3.049348904189146 C 2.884964165293544 -3.0468135764356665 2.879317407142132 -3.0408454387098693 2.87197566930952 -3.0383981927656656 C 2.863574569176159 -3.0355986195843583 2.8532166245232102 -3.0375816505877844 2.8445988907508197 -3.036255662269767 C 2.843094358224811 -3.036024745094098 2.842325427835727 -3.0310493131647345 2.8419802423669442 -3.030066129726061 C 2.840885171224596 -3.0269356546126094 2.8376808978385073 -3.01849170386933 2.835076532991271 -3.0169728878066824 C 2.823818725530045 -3.0104048415420337 2.812075277823083 -3.004458129121196 2.800796045056898 -2.9976901133435976 C 2.7950802498117295 -2.99425968396072 2.7910356283533613 -2.988405814528038 2.7848460958096553 -2.985072989312196 C 2.773871578491776 -2.9791643663223963 2.7544221627678986 -2.98245434092832 2.7422335448356767 -2.98245434092832 C 2.734337129663572 -2.98245434092832 2.724848100156182 -2.9838017545512963 2.7172373557168634 -2.981264046208377 C 2.7137021803986316 -2.9800856544356327 2.709745640749539 -2.97466029110213 2.706524703237371 -2.974122277888716 C 2.698390229121278 -2.9727677224974203 2.6922697336713277 -2.977859803309338 2.685099398278388 -2.9805498693764108 C 2.6792931406345035 -2.982728108713907 2.672220409408599 -2.983232793675163 2.6660546827592917 -2.9836446356482638 C 2.654901621233421 -2.9843873795535085 2.643098658790461 -2.981592567551081 2.632726430600873 -2.9779312209925353 C 2.6236849519081824 -2.9747388505536465 2.61931180910711 -2.9700967011458665 2.608920536202003 -2.972693924224784 C 2.5951535874711364 -2.9761362565548604 2.5829268801078764 -2.9850967952065948 2.5705930462198223 -2.99173863974388 C 2.564922482174011 -2.9947905554058147 2.5578497509481064 -2.993988296764573 2.551786389644714 -2.9962617596796655 C 2.54428515231963 -2.9990756163976116 2.539454936346099 -3.0047437998539825 2.532027497293652 -3.007926647935112 C 2.5274543849796287 -3.009885873044139 2.518558122242771 -3.0110761677640823 2.5153633712144425 -3.0150684162547727 C 2.513704100374841 -3.017141909656914 2.515318140015085 -3.0204152201367584 2.513458899662533 -3.0226863024624113 C 2.497416107427134 -3.0422952176787605 2.4732102740023625 -3.0541576948577176 2.457276988881199 -3.0736309164759934 C 2.451425500037957 -3.0807822071534146 2.4488996946422366 -3.0902164831036867 2.442993452241877 -3.097436810874864 C 2.4344828449942804 -3.107837606137731 2.422722733161239 -3.115336462873375 2.4141883200192438 -3.1257658252095197 C 2.408698680770864 -3.1324767068405617 2.409965154352884 -3.141313454841422 2.4070465516995823 -3.149095601720413 C 2.403328070994479 -3.159008376148102 2.3951007538902296 -3.1673190138827483 2.391810779284306 -3.1771865571110793 C 2.38960873405241 -3.1837903122173263 2.395534021168289 -3.1878682619278527 2.3958577813321136 -3.1943268010782666 C 2.396452928692085 -3.206208322972743 2.3913346613963276 -3.2170471466925488 2.3913346613963276 -3.22860728901264" fill="#292e3c" transform="matrix(1,0,0,1,0,0)" fill-rule="evenodd"></path></g><g clip-path="url(#SvgjsClipPath100191f700a6-9d81-4e8a-b296-9b8ccc5684bf)"><path d=" M 3.197640304686066 -3.191232034806413 C 3.2047725506479683 -3.191232034806413 3.197640304686066 -3.1891347355098727 3.197640304686066 -3.191232034806413" fill="#292e3c" transform="matrix(1,0,0,1,0,0)" fill-rule="evenodd"></path></g><g clip-path="url(#SvgjsClipPath100191f700a6-9d81-4e8a-b296-9b8ccc5684bf)"><path d=" M 3.2528699796914453 -3.1978976852380967 C 3.253848401951239 -3.206708246755119 3.2539031555083566 -3.2147689225985765 3.2597736890671185 -3.221941638580956 C 3.2694960163396165 -3.233825541064872 3.2914855209958525 -3.227902634538433 3.304052652649017 -3.2262266995727527 C 3.309561336612915 -3.2254910974358273 3.3162317482234784 -3.225686305769898 3.3214309555601917 -3.2236080511888767 C 3.3274371827170266 -3.2212060364440305 3.3353097919947343 -3.21828267261185 3.339523435303333 -3.213133457653374 C 3.343613287961059 -3.208134219829611 3.3435918626561003 -3.1993784118697066 3.3516644414467573 -3.1981357441820855 C 3.3703258820660316 -3.195264753317582 3.38996336435566 -3.196707390518153 3.408798588004046 -3.196707390518153 C 3.419963552477117 -3.196707390518153 3.432078372136702 -3.1949100454910386 3.443079075938419 -3.1957551547421987 C 3.450035158281769 -3.1962907873661734 3.4565341674526606 -3.198738033310377 3.4635521451214477 -3.1990879799580405 C 3.4814946477298765 -3.199985462176878 3.5005393632489725 -3.1966621593187954 3.518305702238849 -3.1993260389020284 C 3.525566500030505 -3.2004139682760573 3.527632851664327 -3.2065011354738484 3.5328272978221604 -3.210752868213487 C 3.5359506311672924 -3.213307240682486 3.5429709894255197 -3.213176308263292 3.546872775517494 -3.2133715165973626 C 3.55223386293612 -3.21364052320407 3.5619181007775804 -3.214847482050092 3.566631667868557 -3.2117051039894413 C 3.5734211089511145 -3.2071796034642164 3.5745185606829013 -3.201970873769744 3.583533852891755 -3.2000402157339956 C 3.5908898742610043 -3.19846426552479 3.5989148412628644 -3.19993785038808 3.6063875115146695 -3.199564097846018 C 3.6210614648221346 -3.1988308762985325 3.637049503500415 -3.197169224869491 3.6516187108725235 -3.1978976852380967 C 3.669480273439996 -3.1987904062780546 3.6902937669129283 -3.198668996216621 3.707800621653857 -3.2024208051738823 C 3.7184228117346336 -3.2046966486784143 3.7289116888067753 -3.2104505333546207 3.739700520148344 -3.210990927157475 C 3.752365255968544 -3.2116241639484855 3.765125215366337 -3.2103576903664655 3.777789951186536 -3.210990927157475 C 3.791349788636133 -3.2116693951478434 3.8045073064703883 -3.215064115689122 3.8182599716646157 -3.2157521060372494 C 3.83567398341739 -3.216623401772248 3.8532189275893574 -3.214880810302251 3.8706329393421304 -3.2157521060372494 C 3.8834333687604032 -3.2163924845965797 3.8956505537659036 -3.218787357573106 3.9087223703803233 -3.218132695477137 C 3.9206276981691985 -3.217537548117165 3.9323759070550417 -3.2139738057256535 3.944431211978629 -3.2133715165973626 C 3.9672967735487443 -3.2122288336662166 3.9909931608333795 -3.214523721886268 4.013468305735352 -3.2178946365331482 C 4.018100932785373 -3.2185897686495952 4.0302276553921565 -3.217566115190443 4.031322726534505 -3.210990927157475 C 4.032893915564831 -3.2015637929755227 4.02364294500143 -3.1975048879805152 4.018705602503103 -3.191470093750402 C 4.006914543007343 -3.177060385870766 3.990686064795633 -3.16264353622281 3.9846631735127196 -3.144572481784627 C 3.98171124260726 -3.135714308478807 3.9920882319757265 -3.1308840925052768 3.998470592264064 -3.1269561199294635 C 4.009121349418119 -3.120402357201454 4.020981446007637 -3.1045547733001264 4.013944423623331 -3.091485337275146 C 4.010302121780303 -3.0847220826764277 4.00422685752971 -3.082267694963904 3.9979944743760867 -3.0788682132437453 C 3.994599753834809 -3.0770161146595134 3.9910550561588165 -3.0728357996030713 3.987281821896595 -3.0719645038680725 C 3.973652947353242 -3.068819745217982 3.9622570657045024 -3.072602501837962 3.949192390858403 -3.0743450933079597 C 3.937077571198818 -3.075961513537643 3.9251960493043416 -3.072807232529793 3.9134835492600977 -3.073392857532005 C 3.9066369740309814 -3.073735662411349 3.9019210263505655 -3.076770913947205 3.8956291284609446 -3.0788682132437453 C 3.884680797626903 -3.0825176568550914 3.873282535388725 -3.083029483584668 3.8627769941905026 -3.0888666888912706 C 3.85968460850809 -3.0905854744668693 3.855209100361103 -3.0930612874843515 3.853492695374945 -3.0962465161549204 C 3.8518548498403025 -3.099288909459096 3.8509026140643465 -3.1064163942421175 3.84682704494326 -3.1074352865223895 C 3.840523244106439 -3.109011236731595 3.8280322913153526 -3.1095016381562117 3.821830855824446 -3.1074352865223895 C 3.810839674380488 -3.1037715593744037 3.8018696133709935 -3.0954275933875994 3.7896928983859715 -3.0948181624909887 C 3.767548655416142 -3.0937111884014405 3.750448881469434 -3.1115465644850744 3.7277975729489086 -3.108149463354356 C 3.718970347305807 -3.106825855625779 3.704843929569518 -3.1017337748138605 3.6989924407262755 -3.0945801035469995 C 3.6948978268896697 -3.089573723954917 3.693236175460629 -3.083048528300187 3.689232024022739 -3.078154036411779 C 3.6838495112991545 -3.071576467789371 3.6763411322057515 -3.067422339216768 3.670901485335608 -3.0607757335006043 C 3.6670306469063525 -3.056045502283548 3.6656427632628983 -3.050329707038379 3.6628074812399922 -3.045063843197349 C 3.653116101630212 -3.0270642064423634 3.635580679816004 -3.018163182526626 3.615909869274218 -3.018163182526626 C 3.610453558277997 -3.018163182526626 3.603483192398008 -3.0177037287647277 3.5982935074190534 -3.019591536190558 C 3.5733449300890374 -3.0286639625459677 3.573559183138628 -3.0609495165297154 3.5766301435160823 -3.082439097403576 C 3.5771086419934996 -3.085790967334936 3.580567638449655 -3.0877906624644416 3.581153263451868 -3.091009219387169 C 3.5815722471932876 -3.0933183911438595 3.5807961750358843 -3.096710731095698 3.580677145563889 -3.0991032234827847 C 3.5801843635498334 -3.1089755278899966 3.5807390408893274 -3.120371409538736 3.579248791899958 -3.1300508862013166 C 3.579010732955969 -3.1315911275689228 3.574285262917793 -3.1340288511553673 3.573059259356252 -3.134335947193113 C 3.5594137206868193 -3.1377473318604707 3.539483425896085 -3.1380068161094195 3.5254474705585106 -3.1360023598010343 C 3.518777058947948 -3.1350501240250788 3.513320747951726 -3.1324529009461624 3.5064027550394146 -3.1331456524731696 C 3.48900540741272 -3.134885863353727 3.472491258468224 -3.1415586555537307 3.454982023137855 -3.1429060691767066 C 3.4278885347225003 -3.144989084936608 3.399968981771505 -3.144065416233931 3.37308974640574 -3.147905307000469 C 3.3692974674280003 -3.1484480813927633 3.365633740280014 -3.1511952816063933 3.361900976038272 -3.1521903679922656 C 3.356996961792104 -3.153497311594763 3.3509074140048734 -3.1533497150494907 3.3464271446790064 -3.1557612521520966 C 3.339644845364768 -3.159413076352883 3.3339766619083964 -3.164555149543039 3.3264301933839544 -3.166711963575577 C 3.316138905235323 -3.1696519915338373 3.3057738188140555 -3.169268716634015 3.295482530665423 -3.1714731424553513 C 3.2872766388661327 -3.173232398051427 3.2796992226789725 -3.1763224031444004 3.271676636266553 -3.1786149107750123 C 3.2668535620613417 -3.1799932720607065 3.2570360112112478 -3.180400352854927 3.2533460975794233 -3.184090266486752 C 3.2512559400512013 -3.186180424014973 3.2528699796914453 -3.1950171720158336 3.2528699796914453 -3.1978976852380967" fill="#292e3c" transform="matrix(1,0,0,1,0,0)" fill-rule="evenodd"></path></g><g clip-path="url(#SvgjsClipPath100191f700a6-9d81-4e8a-b296-9b8ccc5684bf)"><path d=" M 5.266848645835876 -3.4145313242678172 C 5.273533340983079 -3.474691200003202 5.326363381833052 -3.5216388043472144 5.378498290566578 -3.5457018024055924 C 5.491514393635774 -3.597862897622957 5.629998042532883 -3.6013599835101515 5.744871005365193 -3.5521293938932876 C 5.81065859453647 -3.5239336925672653 5.876105759417845 -3.4669780902179683 5.87223254039915 -3.389535135149003 C 5.869147296485055 -3.327842159814331 5.812572588446139 -3.285424817174424 5.763201544052322 -3.2588407748992045 C 5.751612834658952 -3.252601249977261 5.738893345281636 -3.247002103614647 5.726302407734074 -3.2431288845959507 C 5.696994971139624 -3.234111211797658 5.667685153955735 -3.225060210747208 5.63703030373831 -3.2212274617489896 C 5.613322013506475 -3.218263627896331 5.589513738518164 -3.215990164981238 5.565612620541699 -3.215990164981238 C 5.544889589467482 -3.215990164981238 5.524192744877104 -3.217680383483558 5.503717295104636 -3.2207513438610125 C 5.434415955920085 -3.2311473779449993 5.363462487664251 -3.249832624458673 5.312555963081707 -3.300739149041217 C 5.2928208766250435 -3.3204742354978802 5.277061374532991 -3.342968425115373 5.270181471051718 -3.370490419629907 C 5.26654393038757 -3.385042962875936 5.266848645835876 -3.399690729699561 5.266848645835876 -3.4145313242678172" fill="#272e3a" transform="matrix(1,0,0,1,0,0)" fill-rule="evenodd"></path></g></g></g><defs><clipPath id="SvgjsClipPath1003"><path d=" M 0.436395671400847 -4.482786449125213 h 5.641811928682681 v 4.232786449125213 h -5.641811928682681 Z"></path></clipPath><clipPath id="SvgjsClipPath100191f700a6-9d81-4e8a-b296-9b8ccc5684bf"><path d=" M 0.436395671400847 -4.482786449125213 L 6.078207600083528 -4.482786449125213 L 6.078207600083528 -0.25 L 0.436395671400847 -0.25 Z"></path></clipPath></defs></svg>